<svg xmlns="http://www.w3.org/2000/svg" width="107" height="23" viewBox="0 0 107 23" fill="none">
  <path d="M4.00491 22.3432C3.36096 22.3426 2.72848 22.1737 2.17094 21.8533C1.61341 21.5329 1.15045 21.0723 0.828535 20.5178C0.506618 19.9633 0.337072 19.3343 0.336914 18.694C0.336757 18.0537 0.505994 17.4247 0.827638 16.87L9.01104 2.77773C9.53035 1.88343 10.2895 1.15034 11.2038 0.660363C12.118 0.17039 13.1512 -0.0571535 14.1881 0.00315957C15.2249 0.0634726 16.2244 0.409266 17.0749 1.0019C17.9254 1.59453 18.5935 2.41065 19.0043 3.35906L19.8989 5.42244C21.4633 5.26936 23.0368 5.60512 24.4003 6.38296C25.7639 7.1608 26.8495 8.34202 27.5061 9.76215L29.9699 15.0855C30.2203 15.6251 30.3604 16.2088 30.382 16.8027C30.4037 17.3966 30.3065 17.9889 30.096 18.5451C29.8855 19.1013 29.566 19.6104 29.1561 20.0428C28.7461 20.4753 28.2538 20.8224 27.7077 21.0641C27.1617 21.3058 26.5728 21.4372 25.9753 21.4508C25.3778 21.4643 24.7835 21.3596 24.2269 21.1429C23.6704 20.9262 23.1627 20.6017 22.7334 20.1883C22.304 19.7748 21.9615 19.2807 21.7258 18.7346L17.9554 10.0354C17.9231 10.0655 17.8909 10.0957 17.8606 10.1296L6.59373 21.2794C5.90671 21.9612 4.97554 22.3438 4.00491 22.3432ZM13.8523 3.59366C13.5056 3.59134 13.1645 3.68134 12.8646 3.85431C12.5647 4.02728 12.3168 4.27691 12.1466 4.5773L3.96322 18.6705C3.95709 18.6807 3.95515 18.6929 3.95779 18.7044C3.96044 18.716 3.96747 18.7261 3.97743 18.7327C3.98657 18.7394 3.99781 18.7426 4.00911 18.7417C4.02041 18.7408 4.03102 18.736 4.03903 18.728L15.3021 7.57534C15.661 7.22093 16.0546 6.90309 16.4771 6.62656L15.6811 4.78364C15.5393 4.4454 15.3036 4.15426 15.0016 3.94422C14.6996 3.73417 14.3437 3.6139 13.9755 3.59743C13.9347 3.5946 13.894 3.59366 13.8523 3.59366ZM21.4823 9.07718L25.0481 17.3109C25.0907 17.4244 25.1562 17.528 25.2406 17.6153C25.3251 17.7026 25.4266 17.7718 25.5389 17.8186C25.6513 17.8654 25.7721 17.8888 25.8939 17.8874C26.0157 17.886 26.1359 17.8598 26.2471 17.8104C26.3583 17.761 26.4582 17.6895 26.5405 17.6002C26.6229 17.511 26.686 17.4059 26.7259 17.2915C26.7658 17.1771 26.7817 17.0557 26.7727 16.9349C26.7636 16.8141 26.7298 16.6965 26.6732 16.5892L24.2095 11.2659C23.9591 10.7141 23.5819 10.2286 23.1082 9.8484C22.6345 9.46822 22.0776 9.20405 21.4823 9.07718Z" fill="#8861E0"/>
  <path d="M4.00491 22.3432C3.36096 22.3426 2.72848 22.1737 2.17094 21.8533C1.61341 21.5329 1.15045 21.0723 0.828535 20.5178C0.506618 19.9633 0.337072 19.3343 0.336914 18.694C0.336757 18.0537 0.505994 17.4247 0.827638 16.87L9.01104 2.77773C9.53035 1.88343 10.2895 1.15034 11.2038 0.660363C12.118 0.17039 13.1512 -0.0571535 14.1881 0.00315957C15.2249 0.0634726 16.2244 0.409266 17.0749 1.0019C17.9254 1.59453 18.5935 2.41065 19.0043 3.35906L19.8989 5.42244C21.4633 5.26936 23.0368 5.60512 24.4003 6.38296C25.7639 7.1608 26.8495 8.34202 27.5061 9.76215L29.9699 15.0855C30.2203 15.6251 30.3604 16.2088 30.382 16.8027C30.4037 17.3966 30.3065 17.9889 30.096 18.5451C29.8855 19.1013 29.566 19.6104 29.1561 20.0428C28.7461 20.4753 28.2538 20.8224 27.7077 21.0641C27.1617 21.3058 26.5728 21.4372 25.9753 21.4508C25.3778 21.4643 24.7835 21.3596 24.2269 21.1429C23.6704 20.9262 23.1627 20.6017 22.7334 20.1883C22.304 19.7748 21.9615 19.2807 21.7258 18.7346L17.9554 10.0354C17.9231 10.0655 17.8909 10.0957 17.8606 10.1296L6.59373 21.2794C5.90671 21.9612 4.97554 22.3438 4.00491 22.3432ZM13.8523 3.59366C13.5056 3.59134 13.1645 3.68134 12.8646 3.85431C12.5647 4.02728 12.3168 4.27691 12.1466 4.5773L3.96322 18.6705C3.95709 18.6807 3.95515 18.6929 3.95779 18.7044C3.96044 18.716 3.96747 18.7261 3.97743 18.7327C3.98657 18.7394 3.99781 18.7426 4.00911 18.7417C4.02041 18.7408 4.03102 18.736 4.03903 18.728L15.3021 7.57534C15.661 7.22093 16.0546 6.90309 16.4771 6.62656L15.6811 4.78364C15.5393 4.4454 15.3036 4.15426 15.0016 3.94422C14.6996 3.73417 14.3437 3.6139 13.9755 3.59743C13.9347 3.5946 13.894 3.59366 13.8523 3.59366ZM21.4823 9.07718L25.0481 17.3109C25.0907 17.4244 25.1562 17.528 25.2406 17.6153C25.3251 17.7026 25.4266 17.7718 25.5389 17.8186C25.6513 17.8654 25.7721 17.8888 25.8939 17.8874C26.0157 17.886 26.1359 17.8598 26.2471 17.8104C26.3583 17.761 26.4582 17.6895 26.5405 17.6002C26.6229 17.511 26.686 17.4059 26.7259 17.2915C26.7658 17.1771 26.7817 17.0557 26.7727 16.9349C26.7636 16.8141 26.7298 16.6965 26.6732 16.5892L24.2095 11.2659C23.9591 10.7141 23.5819 10.2286 23.1082 9.8484C22.6345 9.46822 22.0776 9.20405 21.4823 9.07718Z" fill="url(#paint0_linear_502_7641)"/>
  <g style="mix-blend-mode:color-burn" opacity="0.3">
    <mask id="mask0_502_7641" style="mask-type:luminance" maskUnits="userSpaceOnUse" x="17" y="8" width="6" height="6">
      <path d="M17.9619 10.0354C18.3754 9.5307 18.9371 9.16699 19.5685 8.99504C20.2 8.82308 20.8697 8.85148 21.4841 9.07625C21.8549 9.92987 22.2264 10.7835 22.5985 11.6371L19.2923 13.1314L17.9619 10.0354Z" fill="white"/>
    </mask>
    <g mask="url(#mask0_502_7641)">
      <path d="M19.3245 13.1316L22.5937 11.8191V13.1316H19.3245Z" fill="white"/>
      <path d="M19.2725 13.1315L22.5938 11.7983V11.8191L19.3246 13.1315H19.2725Z" fill="white"/>
      <path d="M19.2202 13.1315L22.5936 11.7766V11.7983L19.2723 13.1315H19.2202Z" fill="#FEFEFE"/>
      <path d="M19.1682 13.1314L22.5938 11.7559V11.7766L19.2203 13.1314H19.1682Z" fill="#FDFDFD"/>
      <path d="M19.116 13.1314L22.5936 11.7351V11.7558L19.1681 13.1314H19.116Z" fill="#FCFCFC"/>
      <path d="M19.064 13.1314L22.5937 11.7144V11.7351L19.1161 13.1314H19.064Z" fill="#FBFBFB"/>
      <path d="M19.0117 13.1316L22.5936 11.6929V11.7145L19.0638 13.1316H19.0117Z" fill="#FAFAFA"/>
      <path d="M18.9587 13.1316L22.5937 11.6721V11.6928L19.0118 13.1316H18.9587Z" fill="#F9F9F9"/>
      <path d="M18.9067 13.1315L22.5938 11.6514V11.6721L18.9589 13.1315H18.9067Z" fill="#F8F8F8"/>
      <path d="M18.8545 13.1315L22.5937 11.6306V11.6513L18.9066 13.1315H18.8545Z" fill="#F7F7F7"/>
      <path d="M18.8025 13.1315L22.5938 11.6089V11.6306L18.8546 13.1315H18.8025Z" fill="#F6F6F6"/>
      <path d="M18.7502 13.1314L22.5937 11.5881V11.6089L18.8024 13.1314H18.7502Z" fill="#F5F5F5"/>
      <path d="M18.6982 13.1314L22.5938 11.5674V11.5881L18.7504 13.1314H18.6982Z" fill="#F4F4F4"/>
      <path d="M18.646 13.1314L22.5937 11.5466V11.5674L18.6981 13.1314H18.646Z" fill="#F3F3F3"/>
      <path d="M18.594 13.1316L22.5938 11.5251V11.5468L18.6461 13.1316H18.594Z" fill="#F2F2F2"/>
      <path d="M18.5408 13.1315L22.5936 11.5044V11.5251L18.5938 13.1315H18.5408Z" fill="#F1F1F1"/>
      <path d="M18.4888 13.1315L22.5937 11.4836V11.5044L18.5409 13.1315H18.4888Z" fill="#F0F0F0"/>
      <path d="M18.4365 13.1315L22.5936 11.4629V11.4836L18.4886 13.1315H18.4365Z" fill="#EFEFEF"/>
      <path d="M18.3845 13.1314L22.5937 11.4412V11.4628L18.4366 13.1314H18.3845Z" fill="#EEEEEE"/>
      <path d="M18.3323 13.1314L22.5936 11.4204V11.4411L18.3844 13.1314H18.3323Z" fill="#EDEDED"/>
      <path d="M18.2803 13.1314L22.5937 11.3997V11.4204L18.3324 13.1314H18.2803Z" fill="#ECECEC"/>
      <path d="M18.2283 13.1316L22.5938 11.3792V11.3999L18.2804 13.1316H18.2283Z" fill="#EBEBEB"/>
      <path d="M18.175 13.1316L22.5937 11.3574V11.3791L18.2281 13.1316H18.175Z" fill="#EAEAEA"/>
      <path d="M18.123 13.1315L22.5938 11.3367V11.3574L18.1752 13.1315H18.123Z" fill="#E9E9E9"/>
      <path d="M18.0708 13.1315L22.5937 11.3159V11.3366L18.1229 13.1315H18.0708Z" fill="#E8E8E8"/>
      <path d="M18.0188 13.1315L22.5938 11.2942V11.3159L18.0709 13.1315H18.0188Z" fill="#E7E7E7"/>
      <path d="M17.9666 13.1314L22.5936 11.2734V11.2942L18.0187 13.1314H17.9666Z" fill="#E6E6E6"/>
      <path d="M17.9619 13.1126L22.5937 11.2527V11.2734L17.9667 13.1314H17.9619V13.1126Z" fill="#E5E5E5"/>
      <path d="M17.9619 13.0909L22.5937 11.2319V11.2527L17.9619 13.1125V13.0909Z" fill="#E4E4E4"/>
      <path d="M17.9619 13.0703L22.5937 11.2104V11.2321L17.9619 13.0911V13.0703Z" fill="#E3E3E3"/>
      <path d="M17.9619 13.0496L22.5937 11.1897V11.2104L17.9619 13.0703V13.0496Z" fill="#E2E2E2"/>
      <path d="M17.9619 13.0288L22.5937 11.1689V11.1897L17.9619 13.0495V13.0288Z" fill="#E1E1E1"/>
      <path d="M17.9619 13.0071L22.5937 11.1482V11.1689L17.9619 13.0288V13.0071Z" fill="#E0E0E0"/>
      <path d="M17.9619 12.9863L22.5937 11.1265V11.1481L17.9619 13.0071V12.9863Z" fill="#DFDFDF"/>
      <path d="M17.9619 12.9656L22.5937 11.1057V11.1264L17.9619 12.9863V12.9656Z" fill="#DEDEDE"/>
      <path d="M17.9619 12.9448L22.5937 11.085V11.1057L17.9619 12.9656V12.9448Z" fill="#DDDDDD"/>
      <path d="M17.9619 12.9234L22.5937 11.0645V11.0852L17.9619 12.9451V12.9234Z" fill="#DCDCDC"/>
      <path d="M17.9619 12.9026L22.5937 11.0427V11.0644L17.9619 12.9233V12.9026Z" fill="#DBDBDB"/>
      <path d="M17.9619 12.8818L22.5937 11.022V11.0427L17.9619 12.9026V12.8818Z" fill="#DADADA"/>
      <path d="M17.9619 12.8611L22.5937 11.0012V11.0219L17.9619 12.8818V12.8611Z" fill="#D9D9D9"/>
      <path d="M17.9619 12.8394L22.5937 10.9805V11.0012L17.9619 12.8611V12.8394Z" fill="#D8D8D8"/>
      <path d="M17.9619 12.8186L22.5937 10.9587V10.9804L17.9619 12.8393V12.8186Z" fill="#D7D7D7"/>
      <path d="M17.9619 12.7979L22.5937 10.938V10.9587L17.9619 12.8186V12.7979Z" fill="#D6D6D6"/>
      <path d="M17.9619 12.7774L22.5937 10.9175V10.9382L17.9619 12.7981V12.7774Z" fill="#D5D5D5"/>
      <path d="M17.9619 12.7557L22.5937 10.8967V10.9175L17.9619 12.7773V12.7557Z" fill="#D4D4D4"/>
      <path d="M17.9619 12.7349L22.5937 10.875V10.8967L17.9619 12.7556V12.7349Z" fill="#D3D3D3"/>
      <path d="M17.9619 12.7141L22.5937 10.8542V10.875L17.9619 12.7349V12.7141Z" fill="#D2D2D2"/>
      <path d="M17.9619 12.6924L22.5937 10.8335V10.8542L17.9619 12.7141V12.6924Z" fill="#D1D1D1"/>
      <path d="M17.9619 12.6717L22.5937 10.8127V10.8335L17.9619 12.6924V12.6717Z" fill="#D0D0D0"/>
      <path d="M17.9619 12.6509L22.5937 10.791V10.8127L17.9619 12.6716V12.6509Z" fill="#CFCFCF"/>
      <path d="M17.9619 12.6304L22.5937 10.7705V10.7912L17.9619 12.6511V12.6304Z" fill="#CECECE"/>
      <path d="M17.9619 12.6096L22.5937 10.7498V10.7705L17.9619 12.6304V12.6096Z" fill="#CDCDCD"/>
      <path d="M17.9619 12.5879L22.5937 10.729V10.7497L17.9619 12.6096V12.5879Z" fill="#CCCCCC"/>
      <path d="M17.9619 12.5671L22.5937 10.7073V10.7289L17.9619 12.5879V12.5671Z" fill="#CBCBCB"/>
      <path d="M17.9619 12.5464L22.5937 10.6865V10.7073L17.9619 12.5671V12.5464Z" fill="#CACACA"/>
      <path d="M17.9619 12.5247L22.5937 10.6658V10.6865L17.9619 12.5464V12.5247Z" fill="#C9C9C9"/>
      <path d="M17.9619 12.504L22.5937 10.645V10.6657L17.9619 12.5247V12.504Z" fill="#C8C8C8"/>
      <path d="M17.9619 12.4834L22.5937 10.6235V10.6452L17.9619 12.5041V12.4834Z" fill="#C7C7C7"/>
      <path d="M17.9619 12.4627L22.5937 10.6028V10.6235L17.9619 12.4834V12.4627Z" fill="#C6C6C6"/>
      <path d="M17.9619 12.441L22.5937 10.582V10.6028L17.9619 12.4626V12.441Z" fill="#C5C5C5"/>
      <path d="M17.9619 12.4202L22.5937 10.5613V10.582L17.9619 12.4409V12.4202Z" fill="#C4C4C4"/>
      <path d="M17.9619 12.3994L22.5937 10.5396V10.5612L17.9619 12.4202V12.3994Z" fill="#C3C3C3"/>
      <path d="M17.9619 12.3787L22.5937 10.5188V10.5395L17.9619 12.3994V12.3787Z" fill="#C2C2C2"/>
      <path d="M17.9619 12.357L22.5937 10.498V10.5188L17.9619 12.3786V12.357Z" fill="#C1C1C1"/>
      <path d="M17.9619 12.3362L22.5937 10.4773V10.498L17.9619 12.357V12.3362Z" fill="#C0C0C0"/>
      <path d="M17.9619 12.3157L22.5937 10.4558V10.4775L17.9619 12.3364V12.3157Z" fill="#BFBFBF"/>
      <path d="M17.9619 12.2949L22.5937 10.4351V10.4558L17.9619 12.3157V12.2949Z" fill="#BEBEBE"/>
      <path d="M17.9619 12.2732L22.5937 10.4143V10.435L17.9619 12.2949V12.2732Z" fill="#BDBDBD"/>
      <path d="M17.9619 12.2525L22.5937 10.3936V10.4143L17.9619 12.2732V12.2525Z" fill="#BCBCBC"/>
      <path d="M17.9619 12.2317L22.5937 10.3718V10.3935L17.9619 12.2524V12.2317Z" fill="#BBBBBB"/>
      <path d="M17.9619 12.2109L22.5937 10.3511V10.3718L17.9619 12.2317V12.2109Z" fill="#BABABA"/>
      <path d="M17.9619 12.1893L22.5937 10.3303V10.3511L17.9619 12.2109V12.1893Z" fill="#B9B9B9"/>
      <path d="M17.9619 12.1685L22.5937 10.3086V10.3303L17.9619 12.1892V12.1685Z" fill="#B8B8B8"/>
      <path d="M17.9619 12.148L22.5937 10.2881V10.3088L17.9619 12.1687V12.148Z" fill="#B7B7B7"/>
      <path d="M17.9619 12.1272L22.5937 10.2673V10.2881L17.9619 12.1479V12.1272Z" fill="#B6B6B6"/>
      <path d="M17.9619 12.1055L22.5937 10.2466V10.2673L17.9619 12.1272V12.1055Z" fill="#B5B5B5"/>
      <path d="M17.9619 12.0847L22.5937 10.2249V10.2465L17.9619 12.1055V12.0847Z" fill="#B4B4B4"/>
      <path d="M17.9619 12.064L22.5937 10.2041V10.2248L17.9619 12.0847V12.064Z" fill="#B3B3B3"/>
      <path d="M17.9619 12.0423L22.5937 10.1833V10.2041L17.9619 12.064V12.0423Z" fill="#B2B2B2"/>
      <path d="M17.9619 12.0215L22.5937 10.1626V10.1833L17.9619 12.0423V12.0215Z" fill="#B1B1B1"/>
      <path d="M17.9619 12.001L22.5937 10.1411V10.1628L17.9619 12.0217V12.001Z" fill="#B0B0B0"/>
      <path d="M17.9619 11.9802L22.5937 10.1204V10.1411L17.9619 12.001V11.9802Z" fill="#AFAFAF"/>
      <path d="M17.9619 11.9585L22.5937 10.0996V10.1203L17.9619 11.9802V11.9585Z" fill="#AEAEAE"/>
      <path d="M17.9619 11.9378L22.5937 10.0789V10.0996L17.9619 11.9585V11.9378Z" fill="#ADADAD"/>
      <path d="M17.9619 11.917L22.5937 10.0571V10.0788L17.9619 11.9377V11.917Z" fill="#ACACAC"/>
      <path d="M17.9619 11.8963L22.5937 10.0364V10.0571L17.9619 11.917V11.8963Z" fill="#ABABAB"/>
      <path d="M17.9619 11.8746L22.5937 10.0156V10.0364L17.9619 11.8962V11.8746Z" fill="#AAAAAA"/>
      <path d="M17.9619 11.8538L22.5937 9.99487V10.0156L17.9619 11.8745V11.8538Z" fill="#A9A9A9"/>
      <path d="M17.9619 11.8333L22.5937 9.97339V9.99506L17.9619 11.854V11.8333Z" fill="#A8A8A8"/>
      <path d="M17.9619 11.8125L22.5937 9.95264V9.97336L17.9619 11.8332V11.8125Z" fill="#A7A7A7"/>
      <path d="M17.9619 11.7908L22.5937 9.93188V9.95261L17.9619 11.8125V11.7908Z" fill="#A6A6A6"/>
      <path d="M17.9619 11.7701L22.5937 9.91113V9.93186L17.9619 11.7908V11.7701Z" fill="#A5A5A5"/>
      <path d="M17.9619 11.7493L22.5937 9.8894V9.91107L17.9619 11.77V11.7493Z" fill="#A4A4A4"/>
      <path d="M17.9619 11.7285L22.5937 9.86865V9.88938L17.9619 11.7493V11.7285Z" fill="#A3A3A3"/>
      <path d="M17.9619 11.7068L22.5937 9.8479V9.86863L17.9619 11.7285V11.7068Z" fill="#A2A2A2"/>
      <path d="M17.9619 11.6861L22.5937 9.82715V9.84788L17.9619 11.7068V11.6861Z" fill="#A1A1A1"/>
      <path d="M17.9619 11.6655L22.5937 9.80566V9.82733L17.9619 11.6863V11.6655Z" fill="#A0A0A0"/>
      <path d="M17.9619 11.6448L22.5937 9.78491V9.80564L17.9619 11.6655V11.6448Z" fill="#9F9F9F"/>
      <path d="M17.9619 11.6231L22.5937 9.76416V9.78489L17.9619 11.6448V11.6231Z" fill="#9E9E9E"/>
      <path d="M17.9619 11.6023L22.5937 9.74243V9.7641L17.9619 11.623V11.6023Z" fill="#9D9D9D"/>
      <path d="M17.9619 11.5816L22.5937 9.72168V9.74241L17.9619 11.6023V11.5816Z" fill="#9C9C9C"/>
      <path d="M17.9619 11.5608L22.5937 9.70093V9.72166L17.9619 11.5815V11.5608Z" fill="#9B9B9B"/>
      <path d="M17.9619 11.5391L22.5937 9.68018V9.7009L17.9619 11.5608V11.5391Z" fill="#9A9A9A"/>
      <path d="M17.9619 11.5186L22.5937 9.65869V9.68036L17.9619 11.5393V11.5186Z" fill="#999999"/>
      <path d="M17.9619 11.4978L22.5937 9.63794V9.65867L17.9619 11.5185V11.4978Z" fill="#989898"/>
      <path d="M17.9619 11.4771L22.5937 9.61719V9.63792L17.9619 11.4978V11.4771Z" fill="#979797"/>
      <path d="M17.9619 11.4554L22.5937 9.59644V9.61716L17.9619 11.477V11.4554Z" fill="#969696"/>
      <path d="M17.9619 11.4346L22.5937 9.57471V9.59638L17.9619 11.4553V11.4346Z" fill="#959595"/>
      <path d="M17.9619 11.4138L22.5937 9.55396V9.57468L17.9619 11.4346V11.4138Z" fill="#949494"/>
      <path d="M17.9619 11.3931L22.5937 9.5332V9.55393L17.9619 11.4138V11.3931Z" fill="#939393"/>
      <path d="M17.9619 11.3714L22.5937 9.51245V9.53318L17.9619 11.3931V11.3714Z" fill="#929292"/>
      <path d="M17.9619 11.3508L22.5937 9.49097V9.51264L17.9619 11.3716V11.3508Z" fill="#919191"/>
      <path d="M17.9619 11.3301L22.5937 9.47021V9.49094L17.9619 11.3508V11.3301Z" fill="#909090"/>
      <path d="M17.9619 11.3093L22.5937 9.44946V9.47019L17.9619 11.3301V11.3093Z" fill="#8F8F8F"/>
      <path d="M17.9619 11.2876L22.5937 9.42871V9.44944L17.9619 11.3093V11.2876Z" fill="#8E8E8E"/>
      <path d="M17.9619 11.2669L22.5937 9.40698V9.42865L17.9619 11.2876V11.2669Z" fill="#8E8E8C"/>
      <path d="M17.9619 11.2461L22.5937 9.38623V9.40696L17.9619 11.2668V11.2461Z" fill="#8D8D8B"/>
      <path d="M17.9619 11.2254L22.5937 9.36548V9.38621L17.9619 11.2461V11.2254Z" fill="#8C8C8A"/>
      <path d="M17.9619 11.2037L22.5937 9.34473V9.36545L17.9619 11.2253V11.2037Z" fill="#8B8B89"/>
      <path d="M17.9619 11.1831L22.5937 9.32324V9.34491L17.9619 11.2038V11.1831Z" fill="#8A8A88"/>
      <path d="M17.9619 11.1624L22.5937 9.30249V9.32322L17.9619 11.1831V11.1624Z" fill="#898987"/>
      <path d="M17.9619 11.1416L22.5937 9.28174V9.30247L17.9619 11.1623V11.1416Z" fill="#888886"/>
      <path d="M17.9619 11.1199L22.5937 9.26099V9.28171L17.9619 11.1416V11.1199Z" fill="#878785"/>
      <path d="M17.9619 11.0991L22.5937 9.23926V9.26093L17.9619 11.1199V11.0991Z" fill="#868684"/>
      <path d="M17.9619 11.0784L22.5937 9.21851V9.23923L17.9619 11.0991V11.0784Z" fill="#858583"/>
      <path d="M17.9619 11.0567L22.5937 9.19775V9.21848L17.9619 11.0784V11.0567Z" fill="#848482"/>
      <path d="M17.9619 11.0359L22.5937 9.177V9.19773L17.9619 11.0567V11.0359Z" fill="#838381"/>
      <path d="M17.9619 11.0154L22.5937 9.15552V9.17719L17.9619 11.0361V11.0154Z" fill="#828280"/>
      <path d="M17.9619 10.9946L22.5937 9.13477V9.15549L17.9619 11.0154V10.9946Z" fill="#81817F"/>
      <path d="M17.9619 10.9729L22.5937 9.11401V9.13474L17.9619 10.9946V10.9729Z" fill="#80807E"/>
      <path d="M17.9619 10.9522L22.5937 9.09229V9.11396L17.9619 10.9729V10.9522Z" fill="#7F7F7D"/>
      <path d="M17.9619 10.9314L22.5937 9.07153V9.09226L17.9619 10.9521V10.9314Z" fill="#7E7E7C"/>
      <path d="M17.9619 10.9107L22.5937 9.05078V9.07151L17.9619 10.9314V10.9107Z" fill="#7D7D7B"/>
      <path d="M17.9619 10.889L22.5937 9.03003V9.05076L17.9619 10.9106V10.889Z" fill="#7C7C7A"/>
      <path d="M17.9619 10.8684L22.5937 9.00854V9.03021L17.9619 10.8891V10.8684Z" fill="#7B7B79"/>
      <path d="M17.9619 10.8477L22.5937 8.98779V9.00852L17.9619 10.8684V10.8477Z" fill="#7A7A78"/>
      <path d="M17.9619 10.8269L22.5937 8.96704V8.98777L17.9619 10.8476V10.8269Z" fill="#797977"/>
      <path d="M17.9619 10.8052L22.5937 8.94629V8.96702L17.9619 10.8269V10.8052Z" fill="#787876"/>
      <path d="M17.9619 10.7845L22.5937 8.92554V8.94627L17.9619 10.8052V10.7845Z" fill="#777775"/>
      <path d="M17.9619 10.7637L22.5937 8.90381V8.92548L17.9619 10.7844V10.7637Z" fill="#767674"/>
      <path d="M17.9619 10.7429L22.5937 8.88306V8.90378L17.9619 10.7637V10.7429Z" fill="#757573"/>
      <path d="M17.9619 10.7212L22.5937 8.8623V8.88303L17.9619 10.7429V10.7212Z" fill="#747472"/>
      <path d="M17.9619 10.7007L22.5937 8.84082V8.86249L17.9619 10.7214V10.7007Z" fill="#737371"/>
      <path d="M17.9619 10.6799L22.5937 8.82007V8.8408L17.9619 10.7007V10.6799Z" fill="#727270"/>
      <path d="M17.9619 10.6592L22.5937 8.79932V8.82004L17.9619 10.6799V10.6592Z" fill="#71716F"/>
      <path d="M17.9619 10.6375L22.5937 8.77856V8.79929L17.9619 10.6592V10.6375Z" fill="#70706E"/>
      <path d="M17.9619 10.6167L22.5937 8.75684V8.77851L17.9619 10.6374V10.6167Z" fill="#6F6F6D"/>
      <path d="M17.9619 10.5962L22.5937 8.73633V8.75706L17.9619 10.6169V10.5962Z" fill="#6E6E6C"/>
      <path d="M17.9619 10.5744L22.5502 8.73242H22.5937V8.73619L17.9619 10.5961V10.5744Z" fill="#6D6D6B"/>
      <path d="M17.9619 10.5537L22.498 8.73242H22.5502L17.9619 10.5744V10.5537Z" fill="#6C6C6A"/>
      <path d="M17.9619 10.5329L22.4459 8.73242H22.498L17.9619 10.5537V10.5329Z" fill="#6B6B69"/>
      <path d="M17.9619 10.5122L22.3938 8.73242H22.4459L17.9619 10.5329V10.5122Z" fill="#6A6A68"/>
      <path d="M17.9619 10.4905L22.3417 8.73242H22.3938L17.9619 10.5122V10.4905Z" fill="#696967"/>
      <path d="M17.9619 10.4698L22.2896 8.73242H22.3417L17.9619 10.4905V10.4698Z" fill="#686866"/>
      <path d="M17.9619 10.4491L22.2374 8.73242H22.2896L17.9619 10.4698V10.4491Z" fill="#676765"/>
      <path d="M17.9619 10.4284L22.1844 8.73242H22.2374L17.9619 10.4491V10.4284Z" fill="#666664"/>
      <path d="M17.9619 10.4067L22.1323 8.73242H22.1844L17.9619 10.4284V10.4067Z" fill="#656563"/>
      <path d="M17.9619 10.386L22.0801 8.73242H22.1323L17.9619 10.4067V10.386Z" fill="#646462"/>
      <path d="M17.9619 10.3652L22.028 8.73242H22.0801L17.9619 10.386V10.3652Z" fill="#636361"/>
      <path d="M17.9619 10.3445L21.9759 8.73242H22.028L17.9619 10.3652V10.3445Z" fill="#626260"/>
      <path d="M17.9619 10.3228L21.9238 8.73242H21.9759L17.9619 10.3445V10.3228Z" fill="#61615F"/>
      <path d="M17.9619 10.3021L21.8717 8.73242H21.9238L17.9619 10.3228V10.3021Z" fill="#60605E"/>
      <path d="M17.9619 10.2814L21.8196 8.73242H21.8717L17.9619 10.3021V10.2814Z" fill="#5F5F5D"/>
      <path d="M17.9619 10.2606L21.7665 8.73242H21.8196L17.9619 10.2814V10.2606Z" fill="#5E5E5C"/>
      <path d="M17.9619 10.239L21.7144 8.73242H21.7665L17.9619 10.2606V10.239Z" fill="#5D5D5B"/>
      <path d="M17.9619 10.2182L21.6623 8.73242H21.7144L17.9619 10.239V10.2182Z" fill="#5C5C5A"/>
      <path d="M17.9619 10.1975L21.6101 8.73242H21.6623L17.9619 10.2182V10.1975Z" fill="#5B5B59"/>
      <path d="M17.9619 10.1768L21.558 8.73242H21.6101L17.9619 10.1975V10.1768Z" fill="#5A5A58"/>
      <path d="M17.9619 10.1551L21.5059 8.73242H21.558L17.9619 10.1768V10.1551Z" fill="#595957"/>
      <path d="M17.9619 10.1344L21.4538 8.73242H21.5059L17.9619 10.1551V10.1344Z" fill="#585856"/>
      <path d="M17.9619 10.1137L21.4007 8.73242H21.4538L17.9619 10.1344V10.1137Z" fill="#575755"/>
      <path d="M17.9619 10.0929L21.3486 8.73242H21.4007L17.9619 10.1137V10.0929Z" fill="#565654"/>
      <path d="M17.9619 10.0713L21.2965 8.73242H21.3486L17.9619 10.0929V10.0713Z" fill="#555553"/>
      <path d="M17.9619 10.0505L21.2444 8.73242H21.2965L17.9619 10.0713V10.0505Z" fill="#545452"/>
      <path d="M17.9619 10.0298L21.1923 8.73242H21.2444L17.9619 10.0505V10.0298Z" fill="#535351"/>
      <path d="M17.9619 10.0091L21.1401 8.73242H21.1923L17.9619 10.0298V10.0091Z" fill="#525250"/>
      <path d="M17.9619 9.98741L21.088 8.73242H21.1401L17.9619 10.0091V9.98741Z" fill="#51514F"/>
      <path d="M17.9619 9.96668L21.035 8.73242H21.088L17.9619 9.98741V9.96668Z" fill="#50504E"/>
      <path d="M17.9619 9.94596L20.9828 8.73242H21.035L17.9619 9.96668V9.94596Z" fill="#4F4F4D"/>
      <path d="M17.9619 9.92523L20.9307 8.73242H20.9828L17.9619 9.94596V9.92523Z" fill="#4E4E4C"/>
      <path d="M17.9619 9.90356L20.8786 8.73242H20.9307L17.9619 9.92523V9.90356Z" fill="#4D4D4B"/>
      <path d="M17.9619 9.88283L20.8265 8.73242H20.8786L17.9619 9.90356V9.88283Z" fill="#4C4C4A"/>
      <path d="M17.9619 9.8621L20.7744 8.73242H20.8265L17.9619 9.88283V9.8621Z" fill="#4B4B49"/>
      <path d="M17.9619 9.84137L20.7222 8.73242H20.7744L17.9619 9.8621V9.84137Z" fill="#4A4A48"/>
      <path d="M17.9619 9.8197L20.6701 8.73242H20.7222L17.9619 9.84137V9.8197Z" fill="#494947"/>
      <path d="M17.9619 9.79898L20.6171 8.73242H20.6701L17.9619 9.8197V9.79898Z" fill="#484846"/>
      <path d="M17.9619 9.77825L20.5649 8.73242H20.6171L17.9619 9.79898V9.77825Z" fill="#474745"/>
      <path d="M17.9619 9.75752L20.5128 8.73242H20.5649L17.9619 9.77825V9.75752Z" fill="#464644"/>
      <path d="M17.9619 9.73585L20.4607 8.73242H20.5128L17.9619 9.75752V9.73585Z" fill="#454543"/>
      <path d="M17.9619 9.71512L20.4086 8.73242H20.4607L17.9619 9.73585V9.71512Z" fill="#444442"/>
      <path d="M17.9619 9.69439L20.3565 8.73242H20.4086L17.9619 9.71512V9.69439Z" fill="#434341"/>
      <path d="M17.9619 9.67366L20.3044 8.73242H20.3565L17.9619 9.69439V9.67366Z" fill="#424240"/>
      <path d="M17.9619 9.65199L20.2522 8.73242H20.3044L17.9619 9.67366V9.65199Z" fill="#41413F"/>
      <path d="M17.9619 9.63127L20.2001 8.73242H20.2522L17.9619 9.65199V9.63127Z" fill="#40403E"/>
      <path d="M17.9619 9.61054L20.1471 8.73242H20.2001L17.9619 9.63127V9.61054Z" fill="#3F3F3D"/>
      <path d="M17.9619 9.58887L20.0949 8.73242H20.1471L17.9619 9.61054V9.58887Z" fill="#3E3E3C"/>
      <path d="M17.9619 9.56814L20.0428 8.73242H20.0949L17.9619 9.58887V9.56814Z" fill="#3D3D3B"/>
      <path d="M17.9619 9.54741L19.9907 8.73242H20.0428L17.9619 9.56814V9.54741Z" fill="#3C3C3A"/>
      <path d="M17.9619 9.52668L19.9386 8.73242H19.9907L17.9619 9.54741V9.52668Z" fill="#3B3B39"/>
      <path d="M17.9619 9.50501L19.8865 8.73242H19.9386L17.9619 9.52668V9.50501Z" fill="#3A3A38"/>
      <path d="M17.9619 9.48429L19.8344 8.73242H19.8865L17.9619 9.50501V9.48429Z" fill="#393937"/>
      <path d="M17.9619 9.46356L19.7813 8.73242H19.8344L17.9619 9.48429V9.46356Z" fill="#383836"/>
      <path d="M17.9619 9.44283L19.7292 8.73242H19.7813L17.9619 9.46356V9.44283Z" fill="#373735"/>
      <path d="M17.9619 9.42116L19.6771 8.73242H19.7292L17.9619 9.44283V9.42116Z" fill="#363634"/>
      <path d="M17.9619 9.40043L19.6249 8.73242H19.6771L17.9619 9.42116V9.40043Z" fill="#353533"/>
      <path d="M17.9619 9.3797L19.5728 8.73242H19.6249L17.9619 9.40043V9.3797Z" fill="#343432"/>
      <path d="M17.9619 9.35898L19.5207 8.73242H19.5728L17.9619 9.3797V9.35898Z" fill="#333331"/>
      <path d="M17.9619 9.3373L19.4686 8.73242H19.5207L17.9619 9.35898V9.3373Z" fill="#323230"/>
      <path d="M17.9619 9.31658L19.4155 8.73242H19.4686L17.9619 9.3373V9.31658Z" fill="#31312F"/>
      <path d="M17.9619 9.29585L19.3634 8.73242H19.4155L17.9619 9.31658V9.29585Z" fill="#30302E"/>
      <path d="M17.9619 9.27512L19.3113 8.73242H19.3634L17.9619 9.29585V9.27512Z" fill="#2F2F2D"/>
      <path d="M17.9619 9.25345L19.2592 8.73242H19.3113L17.9619 9.27512V9.25345Z" fill="#2E2E2C"/>
      <path d="M17.9619 9.23272L19.207 8.73242H19.2592L17.9619 9.25345V9.23272Z" fill="#2D2D2B"/>
      <path d="M17.9619 9.21199L19.1549 8.73242H19.2071L17.9619 9.23272V9.21199Z" fill="#2C2C2A"/>
      <path d="M17.9619 9.19127L19.1028 8.73242H19.1549L17.9619 9.21199V9.19127Z" fill="#2B2B29"/>
      <path d="M17.9619 9.1696L19.0507 8.73242H19.1028L17.9619 9.19127V9.1696Z" fill="#2A2A28"/>
      <path d="M17.9619 9.14887L18.9976 8.73242H19.0507L17.9619 9.1696V9.14887Z" fill="#292927"/>
      <path d="M17.9619 9.12814L18.9455 8.73242H18.9976L17.9619 9.14887V9.12814Z" fill="#282826"/>
      <path d="M17.9619 9.10647L18.8934 8.73242H18.9455L17.9619 9.12814V9.10647Z" fill="#272725"/>
      <path d="M17.9619 9.08574L18.8413 8.73242H18.8934L17.9619 9.10647V9.08574Z" fill="#262624"/>
      <path d="M17.9619 9.06501L18.7892 8.73242H18.8413L17.9619 9.08574V9.06501Z" fill="#252523"/>
      <path d="M17.9619 9.04429L18.737 8.73242H18.7892L17.9619 9.06501V9.04429Z" fill="#242422"/>
      <path d="M17.9619 9.02261L18.6849 8.73242H18.737L17.9619 9.04429V9.02261Z" fill="#232321"/>
      <path d="M17.9619 9.00189L18.6328 8.73242H18.6849L17.9619 9.02261V9.00189Z" fill="#222220"/>
      <path d="M17.9619 8.98116L18.5797 8.73242H18.6328L17.9619 9.00189V8.98116Z" fill="#21211F"/>
      <path d="M17.9619 8.96043L18.5276 8.73242H18.5797L17.9619 8.98116V8.96043Z" fill="#20201E"/>
      <path d="M17.9619 8.93876L18.4755 8.73242H18.5276L17.9619 8.96043V8.93876Z" fill="#1F1F1D"/>
      <path d="M17.9619 8.91803L18.4234 8.73242H18.4755L17.9619 8.93876V8.91803Z" fill="#1E1E1C"/>
      <path d="M17.9619 8.8973L18.3713 8.73242H18.4234L17.9619 8.91803V8.8973Z" fill="#1D1D1B"/>
      <path d="M18.3713 8.73242L17.9619 8.8973V8.73242H18.3713Z" fill="#1D1D1B"/>
    </g>
  </g>
  <path d="M40.6645 7.7722H38.6035L38.2623 8.7549H37.1726L39.0337 3.60303H40.2419L42.102 8.7549H41.0047L40.6645 7.7722ZM40.3802 6.9459L39.6335 4.79772L38.8849 6.94967L40.3802 6.9459Z" fill="#1E1E1E"/>
  <path d="M43.5621 7.90699H45.3929V8.75496H42.3833V7.91924L44.178 5.51667H42.3909V4.6687H45.3711V5.50159L43.5621 7.90699Z" fill="#1E1E1E"/>
  <path d="M49.7943 7.01941H46.7933C46.8029 7.28199 46.9147 7.53061 47.105 7.71285C47.2887 7.88021 47.5306 7.97007 47.7797 7.96348C47.951 7.97367 48.1213 7.93193 48.2682 7.84377C48.415 7.75561 48.5315 7.62519 48.6022 7.46977H49.7213C49.6053 7.85828 49.3647 8.19842 49.0362 8.43834C48.6775 8.69757 48.2419 8.83021 47.7987 8.81521C47.4271 8.82114 47.0604 8.73087 46.7345 8.55328C46.4242 8.38177 46.1704 8.12455 46.0039 7.81273C45.823 7.47262 45.7323 7.09222 45.7405 6.70754C45.7335 6.32149 45.8241 5.93987 46.0039 5.59765C46.1682 5.28673 46.4205 5.03056 46.7298 4.86086C47.0597 4.68441 47.4298 4.5955 47.8044 4.6027C48.1675 4.59728 48.5262 4.68351 48.8467 4.85332C49.1508 5.0156 49.4007 5.26247 49.5659 5.56373C49.7408 5.88888 49.8289 6.25317 49.8218 6.6218C49.8237 6.75487 49.8145 6.88786 49.7943 7.01941ZM48.7519 6.3269C48.754 6.20597 48.7292 6.08608 48.6792 5.97581C48.6293 5.86554 48.5554 5.76762 48.4629 5.68904C48.2706 5.52789 48.0254 5.44271 47.774 5.44972C47.5363 5.44367 47.3049 5.52674 47.1259 5.68244C46.9428 5.85086 46.8282 6.08013 46.8037 6.3269H48.7519Z" fill="#1E1E1E"/>
  <path d="M51.956 4.79769C52.1809 4.67089 52.4356 4.60586 52.6942 4.60926V5.69277H52.4194C52.0934 5.69277 51.8508 5.77003 51.6821 5.92172C51.5135 6.07341 51.4339 6.33911 51.4339 6.71787V8.75487H50.3962V4.66862H51.4339V5.30271C51.5622 5.09319 51.7418 4.91944 51.956 4.79769Z" fill="#1E1E1E"/>
  <path d="M54.7949 4.7865C55.0435 4.65906 55.3198 4.59435 55.5994 4.59807C55.9333 4.59466 56.2615 4.68407 56.547 4.85623C56.8364 5.03312 57.0701 5.28705 57.2217 5.58925C57.3928 5.93136 57.478 6.30961 57.47 6.6916C57.4772 7.07564 57.3921 7.45585 57.2217 7.80056C57.0702 8.10657 56.8367 8.3651 56.547 8.54771C56.2631 8.72427 55.9343 8.81645 55.5994 8.81341C55.3205 8.81944 55.0444 8.75766 54.7949 8.63345C54.5763 8.52149 54.3871 8.36014 54.2425 8.16235V8.75499H53.2058V3.29785H54.2482V5.2689C54.3872 5.06537 54.5751 4.89956 54.7949 4.7865ZM56.2627 6.05845C56.1701 5.88575 56.0301 5.74267 55.8591 5.64578C55.6957 5.5523 55.5103 5.50383 55.3218 5.50539C55.1354 5.50508 54.9523 5.55489 54.7921 5.64955C54.6229 5.74891 54.4846 5.89267 54.3922 6.06505C54.2919 6.26407 54.2397 6.4836 54.2397 6.70621C54.2397 6.92881 54.2919 7.14835 54.3922 7.34736C54.4845 7.52029 54.6228 7.66468 54.7921 7.76475C54.9526 7.85869 55.1355 7.90814 55.3218 7.90797C55.5109 7.91033 55.6969 7.86042 55.8591 7.76381C56.0299 7.66242 56.1695 7.51644 56.2627 7.34171C56.3681 7.142 56.4206 6.91893 56.4153 6.69349C56.42 6.47231 56.3675 6.25364 56.2627 6.05845Z" fill="#1E1E1E"/>
  <path d="M58.0262 5.59775C58.1777 5.29422 58.4118 5.03898 58.7018 4.86096C58.9873 4.68881 59.3155 4.59939 59.6494 4.60281C59.9292 4.59783 60.2058 4.66261 60.4539 4.79124C60.6706 4.90316 60.8594 5.06187 61.0064 5.25574V4.66876H62.0487V8.75502H61.0064V8.15485C60.8628 8.35476 60.6734 8.51785 60.4539 8.63065C60.2036 8.75982 59.9247 8.82461 59.6428 8.81909C59.3078 8.82277 58.9789 8.73053 58.6952 8.55339C58.4057 8.37048 58.1723 8.11203 58.0205 7.80624C57.8504 7.46145 57.7656 7.08124 57.7732 6.69728C57.7674 6.31588 57.8542 5.93872 58.0262 5.59775ZM60.8614 6.06885C60.77 5.89644 60.6314 5.75334 60.4615 5.65617C60.2973 5.56106 60.1105 5.5113 59.9204 5.51201C59.7298 5.51028 59.5423 5.56058 59.3784 5.65743C59.2145 5.75428 59.0804 5.89397 58.9908 6.06131C58.8852 6.25716 58.8326 6.47699 58.8383 6.69917C58.8337 6.92273 58.8862 7.1438 58.9908 7.34174C59.0825 7.51663 59.2208 7.66301 59.3907 7.76478C59.5501 7.86183 59.7335 7.91303 59.9204 7.9127C60.1103 7.91326 60.297 7.86385 60.4615 7.76949C60.6313 7.67178 60.7699 7.52841 60.8614 7.35587C60.9654 7.15718 61.0166 6.93533 61.0101 6.71142C61.0168 6.48718 60.9656 6.26499 60.8614 6.06602V6.06885Z" fill="#1E1E1E"/>
  <path d="M62.9564 4.00922C62.8988 3.953 62.853 3.88592 62.8217 3.81191C62.7905 3.7379 62.7744 3.65844 62.7744 3.57817C62.7744 3.4979 62.7905 3.41844 62.8217 3.34443C62.853 3.27042 62.8988 3.20334 62.9564 3.14712C63.0814 3.03542 63.2436 2.97363 63.4117 2.97363C63.5798 2.97363 63.742 3.03542 63.867 3.14712C63.9246 3.20334 63.9704 3.27042 64.0016 3.34443C64.0329 3.41844 64.049 3.4979 64.049 3.57817C64.049 3.65844 64.0329 3.7379 64.0016 3.81191C63.9704 3.88592 63.9246 3.953 63.867 4.00922C63.742 4.12092 63.5798 4.18271 63.4117 4.18271C63.2436 4.18271 63.0814 4.12092 62.9564 4.00922ZM63.9229 4.66875V8.75501H62.8806V4.66875H63.9229Z" fill="#1E1E1E"/>
  <path d="M65.7984 9.42207C65.7984 9.87432 65.6859 10.2 65.461 10.3991C65.2361 10.5982 64.914 10.6978 64.4945 10.6978H64.0349V9.82062H64.3306C64.4497 9.83225 64.5689 9.79858 64.6641 9.7264C64.6994 9.68556 64.7259 9.63804 64.7422 9.5867C64.7585 9.53537 64.7642 9.48129 64.7589 9.42773V4.66875H65.7965L65.7984 9.42207ZM64.8233 4.00922C64.7659 3.95287 64.7204 3.88575 64.6893 3.81175C64.6582 3.73776 64.6421 3.65836 64.6421 3.57817C64.6421 3.49797 64.6582 3.41858 64.6893 3.34458C64.7204 3.27059 64.7659 3.20347 64.8233 3.14712C64.8853 3.08931 64.9581 3.04424 65.0376 3.01449C65.1171 2.98474 65.2018 2.9709 65.2867 2.97376C65.37 2.97113 65.453 2.98512 65.5308 3.01489C65.6086 3.04467 65.6796 3.08963 65.7396 3.14712C65.8532 3.26216 65.9169 3.41694 65.9169 3.57817C65.9169 3.73939 65.8532 3.89418 65.7396 4.00922C65.6797 4.06689 65.6087 4.11196 65.5309 4.14174C65.4531 4.17153 65.37 4.18542 65.2867 4.18258C65.2017 4.18564 65.117 4.1719 65.0375 4.14213C64.9579 4.11237 64.8851 4.06719 64.8233 4.00922Z" fill="#1E1E1E"/>
  <path d="M66.6171 5.59775C66.7684 5.29434 67.0021 5.03911 67.2917 4.86096C67.5786 4.68796 67.9086 4.59851 68.2441 4.60281C68.5239 4.59783 68.8004 4.66261 69.0486 4.79124C69.2641 4.90203 69.4522 5.05908 69.5991 5.25103V4.66876H70.6415V8.75502H69.5991V8.15485C69.4555 8.35476 69.2662 8.51785 69.0467 8.63065C68.7964 8.75982 68.5175 8.82461 68.2355 8.81909C67.9006 8.82277 67.5716 8.73053 67.2879 8.55339C66.9985 8.37048 66.7651 8.11203 66.6133 7.80624C66.4432 7.46145 66.3584 7.08124 66.3659 6.69728C66.3596 6.31604 66.4457 5.93889 66.6171 5.59775ZM69.4523 6.06885C69.3609 5.89644 69.2222 5.75334 69.0524 5.65617C68.8881 5.56106 68.7013 5.5113 68.5113 5.51201C68.3206 5.51028 68.1332 5.56058 67.9693 5.65743C67.8054 5.75428 67.6713 5.89397 67.5817 6.06131C67.476 6.25716 67.4235 6.47699 67.4291 6.69917C67.4246 6.92273 67.4771 7.1438 67.5817 7.34174C67.6733 7.51663 67.8117 7.66301 67.9816 7.76478C68.141 7.86183 68.3244 7.91303 68.5113 7.9127C68.7012 7.91326 68.8879 7.86385 69.0524 7.76949C69.2221 7.67178 69.3608 7.52841 69.4523 7.35587C69.5558 7.15673 69.6064 6.93455 69.5991 6.71048C69.6062 6.48672 69.5556 6.26488 69.4523 6.06602V6.06885Z" fill="#1E1E1E"/>
  <path d="M74.9379 5.07015C75.2393 5.3773 75.3899 5.80599 75.3899 6.35623V8.75503H74.3476V6.49379C74.3476 6.16968 74.2661 5.92094 74.1031 5.74569C74.0176 5.65773 73.9142 5.58888 73.7998 5.54372C73.6854 5.49856 73.5627 5.47812 73.4398 5.48377C73.3145 5.47735 73.1893 5.49737 73.0724 5.54252C72.9554 5.58766 72.8494 5.6569 72.7613 5.74569C72.5955 5.92094 72.5131 6.16968 72.5131 6.49379V8.75503H71.4707V4.66878H72.5131V5.17473C72.6537 4.99586 72.8353 4.85306 73.0428 4.75828C73.2645 4.65619 73.5063 4.60468 73.7506 4.60753C74.2402 4.60879 74.636 4.763 74.9379 5.07015Z" fill="#1E1E1E"/>
  <path d="M80.9409 7.7722H78.8856L78.5397 8.7549H77.45L79.311 3.60303H80.5192L82.3793 8.7549H81.282L80.9409 7.7722ZM80.6566 6.9459L79.9109 4.79772L79.1623 6.94967L80.6566 6.9459Z" fill="#1E1E1E"/>
  <path d="M84.4507 4.79769C84.6753 4.67097 84.9297 4.60593 85.1879 4.60925V5.69277H84.9141C84.5881 5.69277 84.3455 5.77002 84.1769 5.92172C84.0082 6.07341 83.9286 6.3391 83.9286 6.71786V8.75487H82.8862V4.66861H83.9286V5.3027C84.0569 5.09319 84.2365 4.91944 84.4507 4.79769Z" fill="#1E1E1E"/>
  <path d="M86.9079 5.51672V7.49531C86.9028 7.5493 86.909 7.60378 86.9263 7.65523C86.9436 7.70667 86.9716 7.75394 87.0084 7.79398C87.1054 7.8655 87.2255 7.89904 87.3457 7.8882H87.8271V8.75501H87.1752C86.3002 8.75501 85.8627 8.33228 85.8627 7.48683V5.51672H85.3738V4.66875H85.8627V3.65967H86.9051V4.66875H87.8243V5.51672H86.9079Z" fill="#1E1E1E"/>
  <path d="M88.461 4.00924C88.4034 3.95302 88.3576 3.88594 88.3264 3.81193C88.2951 3.73792 88.2791 3.65846 88.2791 3.57819C88.2791 3.49792 88.2951 3.41846 88.3264 3.34445C88.3576 3.27044 88.4034 3.20336 88.461 3.14714C88.5863 3.03557 88.7486 2.97388 88.9168 2.97388C89.085 2.97388 89.2473 3.03557 89.3726 3.14714C89.43 3.20349 89.4756 3.27061 89.5066 3.34461C89.5377 3.4186 89.5538 3.498 89.5538 3.57819C89.5538 3.65839 89.5377 3.73778 89.5066 3.81178C89.4756 3.88577 89.43 3.95289 89.3726 4.00924C89.2473 4.12081 89.085 4.18251 88.9168 4.18251C88.7486 4.18251 88.5863 4.12081 88.461 4.00924ZM89.4276 4.66877V8.75503H88.3852V4.66877H89.4276Z" fill="#1E1E1E"/>
  <path d="M92.1518 5.51661H91.4326V8.7549H90.3807V5.51661H89.9136V4.66864H90.3807V4.4623C90.3807 3.9598 90.5238 3.59141 90.81 3.35712C91.0962 3.12283 91.5286 3.01228 92.1073 3.02547V3.89511C91.8561 3.89039 91.6799 3.93185 91.5813 4.02042C91.4828 4.10898 91.4326 4.26821 91.4326 4.49905V4.66864H92.1518V5.51661Z" fill="#1E1E1E"/>
  <path d="M92.7081 4.00924C92.6505 3.95302 92.6047 3.88594 92.5735 3.81193C92.5422 3.73792 92.5261 3.65846 92.5261 3.57819C92.5261 3.49792 92.5422 3.41846 92.5735 3.34445C92.6047 3.27044 92.6505 3.20336 92.7081 3.14714C92.8334 3.03557 92.9957 2.97388 93.1639 2.97388C93.3321 2.97388 93.4944 3.03557 93.6197 3.14714C93.6771 3.20349 93.7226 3.27061 93.7537 3.34461C93.7848 3.4186 93.8008 3.498 93.8008 3.57819C93.8008 3.65839 93.7848 3.73778 93.7537 3.81178C93.7226 3.88577 93.6771 3.95289 93.6197 4.00924C93.4944 4.12081 93.3321 4.18251 93.1639 4.18251C92.9957 4.18251 92.8334 4.12081 92.7081 4.00924ZM93.6746 4.66877V8.75503H92.6323V4.66877H93.6746Z" fill="#1E1E1E"/>
  <path d="M94.5056 5.60142C94.6698 5.29267 94.9194 5.03703 95.2248 4.86463C95.5458 4.6858 95.9089 4.59538 96.2767 4.60271C96.7858 4.60271 97.2072 4.72833 97.5408 4.97958C97.8827 5.2456 98.12 5.6223 98.2116 6.04425H97.0925C97.0398 5.87708 96.9345 5.73113 96.7922 5.62781C96.6384 5.52337 96.4552 5.47054 96.2691 5.47706C96.1346 5.47143 96.0008 5.49753 95.8784 5.5532C95.756 5.60888 95.6486 5.69256 95.565 5.7974C95.3926 6.01096 95.3063 6.31434 95.3063 6.70755C95.3063 7.10075 95.3926 7.40194 95.565 7.61111C95.6487 7.71577 95.7562 7.79927 95.8785 7.85478C96.0009 7.91029 96.1347 7.93624 96.2691 7.93051C96.6886 7.93051 96.963 7.74395 97.0925 7.37085H98.2164C98.1184 7.78801 97.8805 8.15955 97.5417 8.42421C97.2056 8.68551 96.7855 8.81585 96.2814 8.81522C95.9137 8.82209 95.5507 8.7317 95.2296 8.55329C94.9242 8.38124 94.6746 8.12591 94.5104 7.81744C94.3299 7.47644 94.239 7.09564 94.246 6.71038C94.237 6.32486 94.3263 5.94337 94.5056 5.60142Z" fill="#1E1E1E"/>
  <path d="M98.8599 4.00924C98.8025 3.95289 98.7569 3.88577 98.7258 3.81178C98.6947 3.73778 98.6787 3.65839 98.6787 3.57819C98.6787 3.498 98.6947 3.4186 98.7258 3.34461C98.7569 3.27061 98.8025 3.20349 98.8599 3.14714C98.9852 3.03557 99.1475 2.97388 99.3157 2.97388C99.4839 2.97388 99.6462 3.03557 99.7715 3.14714C99.8291 3.20336 99.8748 3.27044 99.9061 3.34445C99.9373 3.41846 99.9534 3.49792 99.9534 3.57819C99.9534 3.65846 99.9373 3.73792 99.9061 3.81193C99.8748 3.88594 99.8291 3.95302 99.7715 4.00924C99.6462 4.12081 99.4839 4.18251 99.3157 4.18251C99.1475 4.18251 98.9852 4.12081 98.8599 4.00924ZM99.8274 4.66877V8.75503H98.785V4.66877H99.8274Z" fill="#1E1E1E"/>
  <path d="M100.646 5.59775C100.797 5.29413 101.031 5.03883 101.321 4.86096C101.606 4.6888 101.934 4.59939 102.268 4.6028C102.548 4.5979 102.824 4.66268 103.073 4.79123C103.289 4.90315 103.478 5.06186 103.625 5.25573V4.66875H104.667V8.75501H103.625V8.15484C103.481 8.35475 103.292 8.51784 103.073 8.63064C102.822 8.75993 102.543 8.82472 102.261 8.81908C101.926 8.82281 101.597 8.73057 101.313 8.55338C101.023 8.37077 100.79 8.11224 100.638 7.80623C100.47 7.46075 100.387 7.08023 100.396 6.69633C100.389 6.31548 100.475 5.93868 100.646 5.59775ZM103.481 6.06884C103.39 5.89643 103.251 5.75333 103.081 5.65616C102.917 5.56118 102.73 5.51142 102.54 5.51201C102.353 5.50829 102.169 5.5545 102.007 5.6458C101.839 5.74327 101.702 5.88475 101.61 6.05471C101.504 6.25065 101.452 6.47047 101.458 6.69256C101.453 6.91668 101.505 7.13843 101.61 7.33702C101.702 7.51152 101.84 7.65777 102.009 7.76006C102.169 7.85709 102.353 7.90829 102.54 7.90798C102.73 7.90845 102.917 7.85905 103.081 7.76477C103.251 7.66706 103.39 7.52369 103.481 7.35115C103.585 7.15231 103.636 6.93057 103.63 6.7067C103.635 6.48409 103.584 6.26373 103.481 6.06601V6.06884Z" fill="#1E1E1E"/>
  <path d="M106.543 3.29785V8.75499H105.505V3.29785H106.543Z" fill="#1E1E1E"/>
  <path d="M38.5296 12.2061V17.3504H37.4919V12.2061H38.5296Z" fill="#1E1E1E"/>
  <path d="M42.8286 13.6686C43.1299 13.9757 43.2806 14.4044 43.2806 14.9547V17.3506H42.243V15.095C42.243 14.7709 42.1606 14.5222 41.9985 14.347C41.913 14.259 41.8096 14.1901 41.6952 14.145C41.5809 14.0998 41.4581 14.0794 41.3352 14.085C41.2099 14.0785 41.0847 14.0985 40.9677 14.1436C40.8507 14.1888 40.7448 14.2581 40.6567 14.347C40.4909 14.5222 40.4085 14.7709 40.4085 15.095V17.3506H39.3708V13.2672H40.4132V13.776C40.5538 13.5971 40.7354 13.4543 40.9429 13.3595C41.1645 13.2572 41.4064 13.2053 41.6508 13.2079C42.134 13.2079 42.5266 13.3614 42.8286 13.6686Z" fill="#1E1E1E"/>
  <path d="M45.2895 14.1151V16.0937C45.2844 16.1476 45.2907 16.202 45.3078 16.2534C45.3249 16.3048 45.3526 16.3521 45.389 16.3923C45.486 16.4639 45.6061 16.4974 45.7263 16.4866H46.2087V17.3562H45.5558C44.6815 17.3562 44.2443 16.9335 44.2443 16.088V14.1151H43.7544V13.2671H44.2443V12.2571H45.2866V13.2671H46.2058V14.1151H45.2895Z" fill="#1E1E1E"/>
  <path d="M50.5592 15.6179H47.5573C47.5668 15.88 47.6782 16.1283 47.8681 16.3104C48.0516 16.4781 48.2936 16.568 48.5428 16.561C48.7139 16.5707 48.8841 16.5289 49.031 16.441C49.1778 16.3531 49.2947 16.2232 49.3662 16.0683H50.4844C50.3701 16.4566 50.1307 16.7968 49.8031 17.0368C49.4443 17.2961 49.0087 17.4287 48.5655 17.4137C48.1939 17.4196 47.8272 17.3294 47.5014 17.1518C47.1904 16.9802 46.9357 16.723 46.7679 16.4112C46.5874 16.071 46.4967 15.6907 46.5045 15.306C46.4958 14.9205 46.5844 14.5389 46.7622 14.1961C46.9265 13.8849 47.1793 13.6287 47.489 13.4593C47.8169 13.291 48.1804 13.2025 48.5494 13.2012C48.9185 13.1999 49.2825 13.2858 49.6116 13.4518C49.9159 13.6138 50.1659 13.8608 50.3309 14.1622C50.5058 14.4873 50.5939 14.8516 50.5867 15.2203C50.5886 15.3533 50.5794 15.4863 50.5592 15.6179ZM49.5169 14.9254C49.5195 14.8048 49.4955 14.6852 49.4463 14.5749C49.3972 14.4647 49.3242 14.3665 49.2326 14.2875C49.0399 14.1264 48.7944 14.0412 48.5428 14.0482C48.3048 14.0412 48.0731 14.1244 47.8946 14.2809C47.7118 14.4495 47.5972 14.6787 47.5724 14.9254H49.5169Z" fill="#1E1E1E"/>
  <path d="M52.1976 11.8962V17.3506H51.1553V11.8962H52.1976Z" fill="#1E1E1E"/>
  <path d="M54.0728 11.8962V17.3506H53.0352V11.8962H54.0728Z" fill="#1E1E1E"/>
  <path d="M54.9805 12.6076C54.9229 12.5514 54.8772 12.4843 54.8459 12.4103C54.8147 12.3363 54.7986 12.2568 54.7986 12.1766C54.7986 12.0963 54.8147 12.0169 54.8459 11.9428C54.8772 11.8688 54.9229 11.8018 54.9805 11.7455C55.1058 11.634 55.2681 11.5723 55.4363 11.5723C55.6045 11.5723 55.7668 11.634 55.8921 11.7455C55.9495 11.8019 55.9951 11.869 56.0262 11.943C56.0573 12.017 56.0733 12.0964 56.0733 12.1766C56.0733 12.2568 56.0573 12.3362 56.0262 12.4102C55.9951 12.4842 55.9495 12.5513 55.8921 12.6076C55.7668 12.7192 55.6045 12.7809 55.4363 12.7809C55.2681 12.7809 55.1058 12.7192 54.9805 12.6076ZM55.9471 13.2672V17.3506H54.9114V13.2672H55.9471Z" fill="#1E1E1E"/>
  <path d="M59.202 13.3812C59.4207 13.4912 59.6088 13.653 59.7497 13.8523V13.27H60.7921V17.3827C60.798 17.734 60.7194 18.0816 60.5628 18.3965C60.4082 18.6947 60.1681 18.9406 59.8729 19.1031C59.532 19.2861 59.1486 19.3765 58.7614 19.365C58.1777 19.365 57.6994 19.23 57.3267 18.9599C57.1461 18.8331 56.9958 18.6683 56.8862 18.4774C56.7767 18.2864 56.7107 18.0738 56.6928 17.8547H57.7257C57.7815 18.0426 57.9077 18.2021 58.0782 18.3004C58.2773 18.4153 58.5048 18.4724 58.7348 18.4653C58.8689 18.471 59.0028 18.4503 59.1287 18.4042C59.2546 18.3581 59.37 18.2876 59.4683 18.1967C59.6578 18.0177 59.7526 17.7464 59.7526 17.3827V16.7486C59.609 16.9492 59.4201 17.1135 59.2011 17.2282C58.9532 17.3575 58.6764 17.4223 58.3966 17.4166C58.0617 17.4195 57.733 17.3273 57.449 17.1509C57.1574 16.9689 56.9225 16.7099 56.7705 16.4028C56.5996 16.0583 56.5144 15.678 56.5222 15.2939C56.5146 14.9134 56.5998 14.5368 56.7705 14.1962C56.9215 13.8929 57.1548 13.6376 57.4442 13.4594C57.7316 13.2867 58.0618 13.1973 58.3975 13.2013C58.6764 13.1957 58.9524 13.2575 59.202 13.3812ZM59.6019 14.6635C59.5094 14.4919 59.371 14.3491 59.202 14.2509C59.0375 14.1566 58.8508 14.1072 58.6609 14.1077C58.4701 14.1057 58.2824 14.156 58.1184 14.2528C57.9543 14.3497 57.8201 14.4895 57.7304 14.6569C57.6251 14.8525 57.5728 15.0721 57.5788 15.2939C57.5735 15.5183 57.6257 15.7404 57.7304 15.9393C57.8226 16.1138 57.9608 16.26 58.1303 16.3623C58.29 16.4595 58.4737 16.5107 58.6609 16.5102C58.8508 16.5107 59.0375 16.4613 59.202 16.367C59.3713 16.2687 59.5097 16.1255 59.6019 15.9534C59.6992 15.7522 59.7497 15.5317 59.7497 15.3085C59.7497 15.0852 59.6992 14.8648 59.6019 14.6635Z" fill="#1E1E1E"/>
  <path d="M65.4127 15.6179H62.4107C62.4205 15.8802 62.5323 16.1284 62.7224 16.3104C62.9058 16.4783 63.148 16.5682 63.3971 16.561C63.5683 16.5714 63.7386 16.5299 63.8855 16.4419C64.0324 16.3539 64.1489 16.2236 64.2196 16.0683H65.3349C65.2199 16.4562 64.9807 16.7963 64.6536 17.0368C64.2946 17.2963 63.8587 17.4289 63.4151 17.4137C63.0439 17.4195 62.6775 17.3292 62.3519 17.1518C62.0404 16.9805 61.7854 16.7233 61.6175 16.4112C61.4378 16.0717 61.3474 15.6925 61.3551 15.3089C61.3464 14.9222 61.4357 14.5395 61.6147 14.1961C61.7789 13.8852 62.0313 13.629 62.3406 13.4594C62.6686 13.291 63.0322 13.2025 63.4014 13.2012C63.7706 13.1999 64.1348 13.2858 64.4641 13.4518C64.7682 13.6141 65.0181 13.861 65.1833 14.1622C65.358 14.4874 65.4457 14.8517 65.4382 15.2203C65.4408 15.3533 65.4322 15.4863 65.4127 15.6179ZM64.3703 14.9254C64.373 14.8048 64.3489 14.6852 64.2997 14.5749C64.2506 14.4647 64.1776 14.3666 64.086 14.2875C63.8937 14.1264 63.6485 14.0412 63.3971 14.0482C63.1589 14.0413 62.9269 14.1244 62.748 14.2809C62.5655 14.4497 62.4509 14.6788 62.4258 14.9254H64.3703Z" fill="#1E1E1E"/>
  <path d="M69.4751 13.6686C69.7764 13.9757 69.9271 14.4044 69.9271 14.9547V17.3506H68.8847V15.0951C68.8847 14.7709 68.8032 14.5222 68.6402 14.347C68.5547 14.259 68.4513 14.1902 68.3369 14.145C68.2226 14.0998 68.0998 14.0794 67.9769 14.085C67.8516 14.0787 67.7264 14.0987 67.6095 14.1439C67.4926 14.189 67.3866 14.2582 67.2984 14.347C67.1326 14.5222 67.0502 14.7709 67.0502 15.0951V17.3506H66.0078V13.2672H67.0502V13.776C67.1908 13.5968 67.3728 13.4539 67.5808 13.3596C67.8021 13.2571 68.0436 13.2052 68.2877 13.2079C68.7786 13.2079 69.1744 13.3614 69.4751 13.6686Z" fill="#1E1E1E"/>
  <path d="M70.72 14.1998C70.8845 13.891 71.1339 13.6351 71.4393 13.4621C71.7605 13.2841 72.1234 13.194 72.4911 13.2011C73.0009 13.2011 73.4226 13.3267 73.7561 13.5779C74.0976 13.8442 74.3346 14.2208 74.4261 14.6426H73.307C73.2554 14.4766 73.1514 14.3316 73.0104 14.229C72.8571 14.1242 72.6741 14.071 72.4882 14.0773C72.3528 14.0709 72.2177 14.0967 72.0943 14.1526C71.9708 14.2084 71.8626 14.2928 71.7785 14.3986C71.6054 14.6121 71.5189 14.9155 71.5189 15.3087C71.5189 15.7019 71.6054 16.0028 71.7785 16.2114C71.8621 16.3162 71.9695 16.3999 72.0918 16.4555C72.2142 16.5112 72.3481 16.5373 72.4826 16.5317C72.902 16.5317 73.1762 16.3451 73.3051 15.972H74.4242C74.3262 16.3892 74.0883 16.7607 73.7495 17.0254C73.414 17.2867 72.9939 17.417 72.4892 17.4164C72.1214 17.4231 71.7585 17.3328 71.4374 17.1545C71.1321 16.9818 70.8826 16.7262 70.7181 16.4177C70.548 16.0725 70.4595 15.6932 70.4595 15.3087C70.4595 14.9243 70.548 14.545 70.7181 14.1998H70.72Z" fill="#1E1E1E"/>
  <path d="M78.7908 15.6179H75.7898C75.7996 15.8802 75.9114 16.1284 76.1015 16.3104C76.2849 16.4783 76.527 16.5682 76.7762 16.561C76.9474 16.5714 77.1177 16.5299 77.2646 16.4419C77.4115 16.3539 77.528 16.2236 77.5987 16.0683H78.7178C78.6018 16.4568 78.3612 16.7969 78.0327 17.0368C77.6737 17.2963 77.2378 17.4289 76.7942 17.4137C76.423 17.4195 76.0566 17.3292 75.731 17.1518C75.4198 16.9804 75.1651 16.7232 74.9976 16.4112C74.8166 16.0711 74.726 15.6907 74.7342 15.306C74.7281 14.9197 74.8196 14.5381 75.0004 14.1961C75.1647 13.8852 75.417 13.629 75.7263 13.4594C76.0543 13.291 76.4179 13.2025 76.7871 13.2012C77.1563 13.1999 77.5206 13.2858 77.8498 13.4518C78.1539 13.6141 78.4038 13.861 78.5691 14.1622C78.744 14.4873 78.8321 14.8516 78.8249 15.2203C78.8246 15.3535 78.8132 15.4865 78.7908 15.6179ZM77.7484 14.9254C77.7505 14.8045 77.7257 14.6846 77.6757 14.5743C77.6258 14.464 77.5519 14.3661 77.4594 14.2875C77.2671 14.1264 77.0219 14.0412 76.7705 14.0482C76.5323 14.0413 76.3004 14.1244 76.1214 14.2809C75.9389 14.4497 75.8244 14.6788 75.7992 14.9254H77.7484Z" fill="#1E1E1E"/>
  <path d="M82.0126 16.5316H83.7182V17.3504H80.9702V12.2061H82.0126V16.5316Z" fill="#1E1E1E"/>
  <path d="M84.1694 14.1961C84.3203 13.8927 84.5537 13.6375 84.8431 13.4593C85.1304 13.2865 85.4606 13.1971 85.7964 13.2011C86.0757 13.1949 86.3523 13.258 86.6009 13.3848C86.8171 13.497 87.0055 13.6557 87.1524 13.8493V13.2671H88.1947V17.3505H87.1524V16.7531C87.0087 16.9514 86.8197 17.1129 86.6009 17.2242C86.3502 17.3533 86.071 17.4181 85.7888 17.4127C85.4538 17.4164 85.1249 17.3241 84.8412 17.147C84.5519 16.9637 84.3189 16.7049 84.1675 16.3989C83.9965 16.0544 83.9114 15.674 83.9192 15.2899C83.9128 14.9106 83.9986 14.5353 84.1694 14.1961ZM87.0046 14.6671C86.9121 14.4955 86.7737 14.3527 86.6047 14.2545C86.4401 14.1602 86.2535 14.1108 86.0636 14.1113C85.8728 14.1094 85.6851 14.1596 85.521 14.2564C85.3569 14.3533 85.2227 14.4931 85.1331 14.6605C85.0277 14.8561 84.9755 15.0757 84.9814 15.2975C84.9762 15.5219 85.0283 15.744 85.1331 15.9429C85.2252 16.1174 85.3635 16.2636 85.5329 16.3659C85.6927 16.4631 85.8764 16.5143 86.0636 16.5138C86.2535 16.5143 86.4401 16.4649 86.6047 16.3706C86.774 16.2723 86.9124 16.1291 87.0046 15.957C87.1018 15.7558 87.1524 15.5353 87.1524 15.3121C87.1524 15.0888 87.1018 14.8684 87.0046 14.6671Z" fill="#1E1E1E"/>
  <path d="M90.6176 13.3849C90.8666 13.2591 91.1428 13.196 91.4221 13.2012C91.7576 13.1969 92.0875 13.2863 92.3744 13.4593C92.6637 13.6362 92.8974 13.8902 93.0491 14.1923C93.2201 14.5342 93.3053 14.9121 93.2974 15.2938C93.3047 15.6778 93.2196 16.058 93.0491 16.4027C92.8976 16.709 92.6642 16.9678 92.3744 17.1508C92.0891 17.3282 91.7585 17.4205 91.4221 17.4165C91.1431 17.4228 90.8669 17.3611 90.6176 17.2365C90.3988 17.1248 90.2095 16.9634 90.0651 16.7655V17.3487H89.0247V11.8962H90.067V13.8645C90.2075 13.6615 90.3967 13.4966 90.6176 13.3849ZM92.0854 14.6568C91.9929 14.4859 91.854 14.3442 91.6846 14.2479C91.5212 14.1545 91.3357 14.106 91.1473 14.1075C90.961 14.1074 90.7781 14.1568 90.6176 14.2508C90.4482 14.3502 90.3098 14.4944 90.2177 14.6672C90.1174 14.8662 90.0652 15.0858 90.0652 15.3084C90.0652 15.531 90.1174 15.7505 90.2177 15.9495C90.3098 16.1226 90.4481 16.2671 90.6176 16.3669C90.7781 16.4608 90.961 16.5103 91.1473 16.5101C91.3367 16.5114 91.5227 16.4601 91.6846 16.3622C91.8535 16.2607 91.992 16.1159 92.0854 15.9429C92.1905 15.7428 92.2427 15.5194 92.237 15.2938C92.2425 15.072 92.1903 14.8526 92.0854 14.6568Z" fill="#1E1E1E"/>
  <defs>
    <linearGradient id="paint0_linear_502_7641" x1="17.8927" y1="-6.11477" x2="-8.02632" y2="6.12472" gradientUnits="userSpaceOnUse">
      <stop stop-color="#FFBBAC"/>
      <stop offset="1" stop-color="#696DD4"/>
    </linearGradient>
  </defs>
</svg>