<svg width="116" height="68" viewBox="0 0 116 68" fill="none" xmlns="http://www.w3.org/2000/svg">
<path fill-rule="evenodd" clip-rule="evenodd" d="M103.26 52.6312C111.231 47.0857 116 40.0439 116 32.3804C116 14.4972 90.0325 0 58 0C25.9675 0 0 14.4972 0 32.3804C0 50.2635 25.9675 64.7607 58 64.7607C70.3551 64.7607 81.8079 62.604 91.2164 58.9282L107.222 67.6497L103.26 52.6312Z" fill="#F5F6F9"/>
<path d="M52.1492 30.7574C49.9151 30.7574 47.9917 29.1326 48.0155 26.6954C48.0394 24.2343 49.939 22.6334 52.1612 22.6334C53.6665 22.6334 54.9568 23.3383 55.6497 24.6047L54.2041 25.2857C53.786 24.533 53.0452 24.079 52.1612 24.079C50.7992 24.079 49.7001 25.1304 49.7001 26.6954C49.712 28.2246 50.7753 29.2999 52.1492 29.2999C53.0811 29.2999 53.8457 28.81 54.2519 27.9857L55.7094 28.6069C55.0643 29.945 53.7501 30.7574 52.1492 30.7574ZM60.2633 30.7574C58.4354 30.7574 56.8823 29.503 56.8703 27.6392C56.8584 25.6919 58.3637 24.4613 60.2633 24.4613C62.1987 24.4613 63.6921 25.6919 63.6801 27.6392C63.6682 29.4791 62.2465 30.7574 60.2633 30.7574ZM60.2513 29.3835C61.231 29.3835 61.9956 28.6547 61.9956 27.6273C61.9956 26.5998 61.2549 25.8352 60.2633 25.8352C59.2956 25.8352 58.5429 26.564 58.5429 27.6273C58.5429 28.6189 59.2956 29.3835 60.2513 29.3835ZM66.571 30.6379H64.8268V24.5808H66.4994V26.0144C66.7144 25.0587 67.6702 24.4733 68.5662 24.4613C69.6534 24.4494 70.4658 25.0109 70.8361 26.0383C71.2184 25.0467 72.1861 24.4494 73.1658 24.4613C74.707 24.4852 75.8061 25.5605 75.8061 27.4839V30.6379H74.1216V27.4839C74.1216 26.4804 73.5601 25.8233 72.6401 25.8352C71.7202 25.8472 71.1945 26.4923 71.1945 27.4959V30.6379H69.522V27.4839C69.522 26.4684 68.9485 25.8113 68.0405 25.8352C67.1684 25.8591 66.583 26.576 66.583 27.472L66.571 30.6379ZM77.8563 24.0193C77.3904 24.0193 76.9483 23.7565 76.9483 23.3383C76.9483 22.9321 77.3904 22.6693 77.8563 22.6693C78.3103 22.6693 78.7523 22.9321 78.7523 23.3383C78.7523 23.7565 78.3103 24.0193 77.8563 24.0193ZM78.6807 30.6379H77.0081V24.5808H78.6807V30.6379ZM81.6439 30.6379H79.8996V24.5808H81.5842V26.0144C81.8948 25.0109 82.9222 24.4733 83.9258 24.4613C85.5625 24.4494 86.817 25.6321 86.817 27.6392V30.6379H85.1444V27.6273C85.1444 26.4804 84.3678 25.8233 83.4001 25.8352C82.4443 25.8472 81.6439 26.5043 81.6439 27.6273V30.6379ZM90.7995 33.7083C88.8521 33.7083 87.6933 32.9318 87.6694 31.6176C87.6574 30.853 88.1473 30.2556 88.7088 29.9092C88.5176 29.7658 88.4101 29.5627 88.4221 29.264C88.434 28.9654 88.6252 28.7145 88.8999 28.4755C88.4101 28.1052 88.1234 27.5078 88.1234 26.8627C88.1234 25.4051 89.1628 24.4613 90.8951 24.4613C91.373 24.4613 91.7194 24.5211 91.9703 24.5808H94.1088V25.7994H93.1889C93.4398 26.0264 93.5712 26.4445 93.5712 26.8149C93.5712 28.2366 92.5318 29.1565 90.8592 29.1565C90.6561 29.1565 90.2499 29.1207 90.0946 29.0848C89.8557 29.2043 89.7243 29.3596 89.7123 29.5149C89.7123 29.7658 89.9632 29.8136 90.3694 29.8136H91.6119C92.9619 29.8136 94.1805 30.2676 94.1686 31.6056C94.1566 33.0751 92.8902 33.7083 90.7995 33.7083ZM90.8592 27.7945C91.6477 27.7945 92.042 27.4361 92.042 26.8149C92.042 26.2175 91.6358 25.8352 90.8592 25.8352C90.011 25.8352 89.6526 26.2056 89.6526 26.8388C89.6526 27.4122 90.011 27.7945 90.8592 27.7945ZM90.6681 32.4897C92.042 32.4897 92.6274 32.2508 92.6394 31.6893C92.6394 31.1158 92.2332 30.8291 91.3969 30.8291H90.3814C89.6884 30.8291 89.1867 31.0919 89.1986 31.7012C89.2225 32.2747 89.7004 32.4897 90.6681 32.4897ZM50.6678 42.7574C49.2341 42.7216 48.0275 41.9092 48.0155 40.5472H49.5448C49.6045 41.2162 50.0943 41.5149 50.6917 41.5388C51.1815 41.5508 51.6235 41.3118 51.6355 40.8937C51.6474 40.4516 51.3488 40.2485 50.62 40.1291C49.0788 39.9379 48.0514 39.5795 48.0275 38.337C48.0036 37.202 49.043 36.4613 50.5005 36.4613C52.0059 36.4613 53.1647 37.202 53.2125 38.6476H51.6833C51.6474 38.0861 51.2054 37.7038 50.5603 37.6919C50.0107 37.6799 49.6523 37.9786 49.6523 38.3967C49.6642 38.8029 49.9629 39.0419 50.7514 39.1853C52.4598 39.4839 53.2483 39.7468 53.2364 41.0012C53.2364 42.184 52.1373 42.7933 50.6678 42.7574ZM57.7899 42.7574C55.962 42.7574 54.4089 41.503 54.3969 39.6392C54.385 37.6919 55.8903 36.4613 57.7899 36.4613C59.7253 36.4613 61.2187 37.6919 61.2067 39.6392C61.1948 41.4791 59.7731 42.7574 57.7899 42.7574ZM57.7779 41.3835C58.7576 41.3835 59.5222 40.6547 59.5222 39.6273C59.5222 38.5998 58.7815 37.8352 57.7899 37.8352C56.8222 37.8352 56.0695 38.564 56.0695 39.6273C56.0695 40.6189 56.8222 41.3835 57.7779 41.3835ZM65.7463 42.7574C63.9184 42.7574 62.3653 41.503 62.3534 39.6392C62.3414 37.6919 63.8468 36.4613 65.7463 36.4613C67.6817 36.4613 69.1751 37.6919 69.1632 39.6392C69.1512 41.4791 67.7295 42.7574 65.7463 42.7574ZM65.7344 41.3835C66.714 41.3835 67.4786 40.6547 67.4786 39.6273C67.4786 38.5998 66.7379 37.8352 65.7463 37.8352C64.7786 37.8352 64.026 38.564 64.026 39.6273C64.026 40.6189 64.7786 41.3835 65.7344 41.3835ZM72.0541 42.6379H70.3098V36.5808H71.9943V38.0144C72.305 37.0109 73.3324 36.4733 74.336 36.4613C75.9727 36.4494 77.2271 37.6321 77.2271 39.6392V42.6379H75.5546V39.6273C75.5546 38.4804 74.778 37.8233 73.8103 37.8352C72.8545 37.8472 72.0541 38.5043 72.0541 39.6273V42.6379ZM79.2553 42.626C78.7774 42.626 78.3712 42.2198 78.3712 41.73C78.3712 41.264 78.7774 40.8578 79.2553 40.8578C79.7332 40.8578 80.1394 41.264 80.1394 41.73C80.1394 42.2198 79.7332 42.626 79.2553 42.626ZM82.1716 42.626C81.6937 42.626 81.2875 42.2198 81.2875 41.73C81.2875 41.264 81.6937 40.8578 82.1716 40.8578C82.6495 40.8578 83.0557 41.264 83.0557 41.73C83.0557 42.2198 82.6495 42.626 82.1716 42.626ZM85.0879 42.626C84.61 42.626 84.2038 42.2198 84.2038 41.73C84.2038 41.264 84.61 40.8578 85.0879 40.8578C85.5658 40.8578 85.972 41.264 85.972 41.73C85.972 42.2198 85.5658 42.626 85.0879 42.626Z" fill="black"/>
<path fill-rule="evenodd" clip-rule="evenodd" d="M21.2445 20.9362C21.2404 20.9859 21.2328 21.0739 21.2278 21.1319C21.2228 21.1899 21.209 21.3593 21.1971 21.5083C21.1852 21.6574 21.1558 21.8888 21.1317 22.0227C21.1076 22.1565 21.0891 22.3056 21.0905 22.3539C21.0932 22.4429 21.0747 22.5721 20.9852 23.0892C20.896 23.6052 20.8761 23.734 20.8526 23.9476C20.8397 24.0637 20.8075 24.1924 20.7809 24.2337C20.7542 24.275 20.7227 24.3766 20.7108 24.4594C20.6989 24.5422 20.6641 24.642 20.6334 24.6812C20.6028 24.7205 20.5842 24.7629 20.5921 24.7757C20.6 24.7884 20.5862 24.8156 20.5615 24.8361C20.5368 24.8565 20.5166 24.8936 20.5166 24.9184C20.5166 24.9555 20.5249 24.9567 20.5626 24.9256C20.601 24.8937 20.6054 24.8956 20.5895 24.9369C20.579 24.9641 20.5516 24.9863 20.5285 24.9863C20.5054 24.9863 20.4865 24.9988 20.4865 25.0141C20.4865 25.1324 20.0429 25.4068 19.7777 25.4527C19.7114 25.4641 19.6435 25.4841 19.6269 25.497C19.6103 25.51 19.5425 25.5294 19.4761 25.5403C19.2594 25.5757 18.9799 25.6568 18.9942 25.68C19.0019 25.6924 18.9615 25.6921 18.9044 25.6792C18.8472 25.6664 18.7947 25.6617 18.7875 25.6689C18.7753 25.6811 18.6226 25.704 18.1189 25.7695C17.845 25.8051 17.3018 25.8561 17.1764 25.8581C17.0197 25.8605 17.0632 25.9125 17.2367 25.9301C17.3238 25.9389 17.4358 25.9531 17.4855 25.9616C17.5353 25.9701 17.6575 25.9865 17.757 25.9981C17.8944 26.014 17.9234 26.0251 17.8776 26.0443C17.8373 26.0612 17.8738 26.0672 17.9879 26.0625C18.0817 26.0585 18.1522 26.0655 18.1445 26.0779C18.1368 26.0904 18.1685 26.1007 18.2151 26.1009C18.352 26.1016 18.4478 26.1345 18.4004 26.1645C18.3728 26.182 18.386 26.1901 18.4428 26.1904C18.4882 26.1907 18.5968 26.218 18.6841 26.2511C18.7714 26.2842 18.8697 26.3113 18.9026 26.3113C18.963 26.3113 19.0295 26.3403 19.5515 26.5938C19.7091 26.6703 19.852 26.7329 19.869 26.7329C19.886 26.7329 19.9446 26.7735 19.9991 26.8232C20.0535 26.8729 20.1078 26.9136 20.1196 26.9136C20.1315 26.9136 20.1991 26.9779 20.2701 27.0566C20.341 27.1353 20.4187 27.2211 20.4427 27.2473C20.4668 27.2736 20.4869 27.3142 20.4874 27.3377C20.4885 27.3869 20.5614 27.4912 20.581 27.4716C20.5883 27.4644 20.597 27.4927 20.6005 27.5345C20.604 27.5764 20.6272 27.6397 20.6522 27.6753C20.6772 27.7109 20.6982 27.7675 20.6989 27.8011C20.6996 27.8347 20.7208 27.9163 20.746 27.9826C20.8776 28.3289 20.9929 28.931 21.0879 29.7666C21.1034 29.9032 21.1224 30.0252 21.1302 30.0377C21.1379 30.0502 21.1539 30.1688 21.1657 30.3013C21.1775 30.4338 21.1991 30.565 21.2138 30.5929C21.2501 30.6619 21.2473 30.6854 21.2059 30.6599C21.1812 30.6447 21.1777 30.6636 21.1934 30.7259C21.2056 30.7739 21.2146 30.9114 21.2134 31.0315C21.2122 31.1561 21.224 31.2498 21.241 31.2498C21.2573 31.2498 21.2717 31.1854 21.2731 31.1068C21.2757 30.9518 21.2775 30.9345 21.3275 30.5648C21.346 30.4281 21.3762 30.2045 21.3946 30.0679C21.4131 29.9312 21.4409 29.7449 21.4564 29.6538C21.4719 29.5628 21.4923 29.4272 21.5017 29.3527C21.5112 29.2782 21.5299 29.2102 21.5435 29.2016C21.557 29.1931 21.5741 29.101 21.5815 28.9971C21.5889 28.8931 21.6034 28.7996 21.6138 28.7893C21.6241 28.779 21.6326 28.7321 21.6326 28.6852C21.6326 28.6383 21.6455 28.5999 21.6614 28.5999C21.6772 28.5999 21.6982 28.5491 21.708 28.487C21.7178 28.4249 21.7438 28.3334 21.7658 28.2837C21.7878 28.234 21.8195 28.1256 21.8362 28.0428C21.8778 27.8366 21.9953 27.5158 22.0293 27.5158C22.0404 27.5158 22.0587 27.4582 22.0699 27.3879C22.0914 27.2535 22.2143 27.034 22.2681 27.034C22.2855 27.034 22.2912 27.0205 22.281 27.0039C22.2707 26.9873 22.2753 26.9738 22.2911 26.9738C22.307 26.9738 22.3519 26.9401 22.3909 26.899C22.43 26.8579 22.506 26.8157 22.56 26.8053C22.6139 26.7949 22.658 26.7741 22.658 26.759C22.658 26.7439 22.6953 26.7151 22.7409 26.695C22.7866 26.6748 22.8402 26.6429 22.8601 26.6239C22.88 26.6051 22.9464 26.5802 23.0077 26.5687C23.069 26.5572 23.1359 26.531 23.1565 26.5105C23.1771 26.4899 23.3143 26.4337 23.4613 26.3855C23.6084 26.3374 23.7381 26.2845 23.7495 26.2681C23.761 26.2516 23.8017 26.2362 23.84 26.2339C23.9738 26.2256 24.2114 26.1823 24.2263 26.1636C24.2503 26.1335 24.5196 26.0704 24.6239 26.0704C24.6762 26.0704 24.7092 26.0607 24.6972 26.0488C24.6728 26.0244 24.951 25.9532 25.0783 25.9512C25.124 25.9505 25.1613 25.9382 25.1613 25.9237C25.1613 25.9093 25.2445 25.8881 25.3463 25.8766C25.558 25.8527 25.5488 25.8115 25.3272 25.791C24.6608 25.7295 23.8715 25.6453 23.8349 25.6318C23.8103 25.6227 23.6497 25.5956 23.4779 25.5715C23.3061 25.5475 23.143 25.5161 23.1154 25.5018C23.0877 25.4875 22.9973 25.4663 22.9144 25.4546C22.8314 25.4429 22.7335 25.4141 22.6967 25.3905C22.66 25.367 22.5989 25.3476 22.561 25.3475C22.4724 25.3473 22.3439 25.262 22.2132 25.1167C22.0871 24.9766 21.8135 24.4445 21.8135 24.3395C21.8135 24.2978 21.8009 24.2636 21.7855 24.2636C21.7701 24.2636 21.7405 24.1857 21.7197 24.0905C21.6988 23.9952 21.6648 23.8902 21.6441 23.8571C21.6233 23.824 21.5969 23.7088 21.5853 23.6012C21.5738 23.4935 21.5525 23.3825 21.538 23.3545C21.5235 23.3265 21.4968 23.1639 21.4785 22.9931C21.4603 22.8224 21.4341 22.6556 21.4204 22.6225C21.4067 22.5894 21.387 22.4877 21.3767 22.3966C21.3193 21.8905 21.295 21.6179 21.2747 21.2524C21.2623 21.0288 21.2488 20.8865 21.2445 20.9362ZM33.1235 21.501C33.1235 21.5715 33.1088 21.6765 33.0908 21.7344C33.0728 21.7922 33.0517 21.9615 33.0438 22.1106C33.0174 22.6127 33.0071 22.742 32.9735 22.9989C32.9551 23.1397 32.9263 23.37 32.9097 23.5108C32.893 23.6516 32.8663 23.8684 32.8502 23.9926C32.8341 24.1168 32.8093 24.3133 32.7951 24.4293C32.7341 24.9262 32.6975 25.1934 32.6671 25.3628C32.6494 25.4621 32.6278 25.6315 32.6193 25.7392C32.6108 25.8468 32.5931 25.9485 32.5799 25.965C32.5667 25.9816 32.5462 26.1239 32.5343 26.2812C32.5224 26.4385 32.4981 26.5944 32.4803 26.6275C32.4513 26.6815 32.4182 26.8497 32.3855 27.1093C32.3793 27.159 32.3717 27.1996 32.3686 27.1996C32.3655 27.1996 32.3449 27.2945 32.3227 27.4104C32.2717 27.6766 32.2319 27.8593 32.1916 28.0127C32.1741 28.0789 32.1595 28.1797 32.1591 28.2366C32.1587 28.2934 32.1326 28.3951 32.101 28.4624C32.0694 28.5297 32.037 28.6255 32.0291 28.6752C32.0211 28.7249 32.0003 28.8062 31.983 28.8559C31.9657 28.9055 31.9082 29.0817 31.8553 29.2473C31.8025 29.4129 31.7472 29.5613 31.7326 29.5771C31.718 29.5928 31.706 29.6268 31.706 29.6527C31.706 29.7982 31.281 30.4777 31.1626 30.5214C31.1317 30.5328 31.1067 30.5543 31.1071 30.5692C31.1074 30.5841 31.0422 30.6297 30.962 30.6706C30.8819 30.7115 30.7959 30.7569 30.771 30.7716C30.7462 30.7863 30.6919 30.8126 30.6504 30.8302C30.6089 30.8477 30.5351 30.8818 30.4863 30.9059C30.4375 30.9301 30.3425 30.9582 30.2752 30.9685C30.2078 30.9788 30.1168 31.0053 30.0728 31.0274C29.9251 31.1017 29.4043 31.2497 29.2897 31.25C29.2502 31.2501 29.1831 31.2683 29.1406 31.2904C29.0981 31.3126 28.9697 31.3403 28.8554 31.352C28.741 31.3637 28.6326 31.3854 28.6146 31.4004C28.5966 31.4153 28.4535 31.4432 28.2967 31.4625C28.1398 31.4818 27.972 31.5163 27.9238 31.5393C27.8757 31.5623 27.7671 31.5817 27.6825 31.5824C27.598 31.5831 27.4678 31.5978 27.3931 31.6152C27.3185 31.6324 27.2145 31.6488 27.162 31.6515C27.1095 31.6542 27.0563 31.6665 27.0438 31.6789C27.0314 31.6914 26.9454 31.7023 26.8527 31.7033C26.6979 31.705 26.5291 31.7282 26.3375 31.7742C26.296 31.7841 26.1535 31.7991 26.0208 31.8074C25.2929 31.8531 24.9505 31.9002 24.9497 31.9548C24.9494 31.9774 24.9423 31.977 24.9271 31.9535C24.911 31.9288 24.79 31.9265 24.4859 31.9452C24.0858 31.9699 23.9029 32.0018 24.1534 32.0034C24.2184 32.0038 24.3258 32.0183 24.3922 32.0357C24.4585 32.0531 24.6689 32.0866 24.8597 32.1102C25.0504 32.1338 25.2404 32.1656 25.2819 32.1809C25.3234 32.1961 25.4507 32.2171 25.5648 32.2273C25.6789 32.2376 25.8078 32.264 25.8513 32.286C25.8948 32.3079 26.018 32.3354 26.1251 32.3471C26.2322 32.3588 26.3624 32.3862 26.4145 32.4079C26.4665 32.4296 26.596 32.457 26.7023 32.4687C26.8085 32.4804 26.9362 32.51 26.986 32.5344C27.0357 32.5587 27.1443 32.5868 27.2272 32.5967C27.3102 32.6067 27.3916 32.6312 27.4082 32.6512C27.4368 32.6857 27.8682 32.811 28.0232 32.8297C28.0629 32.8345 28.1075 32.86 28.1222 32.8864C28.1382 32.9149 28.2097 32.9424 28.2984 32.9541C28.3805 32.965 28.4631 32.9925 28.482 33.0153C28.501 33.038 28.5387 33.0566 28.566 33.0566C28.5932 33.0566 28.6661 33.0837 28.728 33.1168C28.79 33.1499 28.8556 33.177 28.8739 33.177C28.8922 33.177 29.0178 33.2254 29.153 33.2846C29.2881 33.3437 29.4259 33.3976 29.4591 33.4043C29.4923 33.4111 29.538 33.444 29.5608 33.4775C29.5836 33.511 29.6258 33.5384 29.6547 33.5384C29.6837 33.5384 29.7418 33.5655 29.784 33.5986C29.8262 33.6318 29.8768 33.6589 29.8964 33.6589C29.9447 33.6589 30.2583 33.8476 30.2583 33.8767C30.2583 33.8894 30.276 33.8998 30.2976 33.8998C30.3386 33.8998 30.5977 34.0775 30.6152 34.1176C30.6208 34.1303 30.6479 34.141 30.6755 34.1413C30.7261 34.142 31.1851 34.5771 31.3006 34.7339C31.3347 34.7803 31.3998 34.8826 31.4451 34.9612C31.4905 35.0399 31.5417 35.1043 31.559 35.1043C31.5763 35.1043 31.5844 35.1212 31.577 35.1419C31.5697 35.1626 31.5957 35.2435 31.6348 35.3216C31.674 35.3997 31.706 35.4903 31.706 35.5228C31.706 35.5568 31.7334 35.5907 31.7703 35.6024C31.8208 35.6184 31.8257 35.6284 31.7929 35.6491C31.7628 35.6682 31.7617 35.6756 31.7889 35.676C31.8097 35.6762 31.8271 35.7069 31.8276 35.7442C31.8281 35.7814 31.8475 35.8369 31.8707 35.8674C31.8938 35.8979 31.9223 35.9789 31.9338 36.0474C31.9454 36.1159 31.9726 36.1994 31.9941 36.2328C32.0157 36.2663 32.0431 36.3479 32.0552 36.4142C32.0672 36.4804 32.0949 36.562 32.1166 36.5955C32.1384 36.6289 32.1654 36.7373 32.1765 36.8364C32.1877 36.9354 32.2099 37.0331 32.2259 37.0534C32.2773 37.1184 32.4877 38.059 32.4893 38.2305C32.4897 38.2854 32.5028 38.3539 32.5183 38.3828C32.5474 38.4371 32.5807 38.6282 32.6554 39.1695C32.6794 39.3434 32.7276 39.6754 32.7626 39.9073C32.827 40.3348 32.8533 40.5641 32.9094 41.1871C32.9265 41.3775 32.9556 41.6689 32.9741 41.8345C32.9925 42.0001 33.0131 42.244 33.0199 42.3765C33.0267 42.509 33.0395 42.6987 33.0484 42.7981C33.0573 42.8975 33.0712 43.1414 33.0795 43.3401C33.0877 43.5389 33.104 43.7896 33.1157 43.8972C33.1389 44.111 33.1371 44.1321 33.1978 42.9788C33.2082 42.78 33.2306 42.5653 33.2475 42.5016C33.2644 42.438 33.2793 42.2453 33.2806 42.0734C33.2819 41.9016 33.2934 41.7674 33.3061 41.7753C33.3304 41.7902 33.3529 41.6019 33.3829 41.1344C33.3927 40.9812 33.4123 40.863 33.4263 40.8716C33.4404 40.8803 33.4513 40.8179 33.4506 40.733C33.45 40.6481 33.4643 40.5637 33.4825 40.5456C33.5007 40.5274 33.5156 40.428 33.5156 40.3248C33.5156 40.2215 33.5297 40.1 33.5469 40.0547C33.5839 39.9578 33.5968 39.8828 33.6423 39.5008C33.661 39.3434 33.6875 39.2072 33.7011 39.1981C33.7147 39.189 33.7476 39.0264 33.7741 38.8368C33.8007 38.6471 33.8408 38.451 33.8632 38.4009C33.8857 38.3508 33.9028 38.2669 33.9013 38.2144C33.8998 38.1618 33.9189 38.0876 33.9437 38.0494C33.9685 38.0113 33.9981 37.899 34.0096 37.8C34.0211 37.7009 34.0503 37.5896 34.0747 37.5526C34.0989 37.5156 34.1188 37.4318 34.1188 37.3663C34.1188 37.3009 34.1332 37.2425 34.1507 37.2367C34.1682 37.2309 34.2078 37.113 34.2387 36.9747C34.2696 36.8364 34.3095 36.7086 34.3275 36.6907C34.3454 36.6728 34.3601 36.6121 34.3601 36.5558C34.3601 36.4996 34.3883 36.4141 34.4227 36.3658C34.46 36.3135 34.4875 36.2244 34.4905 36.1456C34.4933 36.0729 34.5038 36.0183 34.5138 36.0245C34.5397 36.0405 34.5944 35.9205 34.6177 35.7969C34.6285 35.7389 34.6565 35.6615 34.6797 35.6248C34.703 35.5881 34.722 35.537 34.722 35.5112C34.722 35.4503 34.9089 35.0019 34.9397 34.9889C34.9527 34.9833 34.9633 34.9394 34.9633 34.8912C34.9633 34.8363 34.9858 34.7897 35.0236 34.766C35.0568 34.7454 35.0839 34.7008 35.0839 34.667C35.0839 34.6319 35.1609 34.5295 35.2635 34.4281C35.3622 34.3306 35.4361 34.2395 35.4276 34.2258C35.4191 34.2121 35.437 34.2009 35.4675 34.2009C35.498 34.2009 35.5675 34.1602 35.622 34.1105C35.6764 34.0609 35.7413 34.0202 35.7662 34.0202C35.791 34.0202 35.8039 34.0081 35.7947 33.9934C35.7856 33.9787 35.8255 33.9441 35.8834 33.9167C35.9414 33.8893 35.9887 33.8545 35.9887 33.8395C35.9887 33.8244 36.0364 33.8032 36.0946 33.7923C36.1529 33.7814 36.2077 33.7609 36.2164 33.7468C36.2252 33.7326 36.3234 33.6786 36.4348 33.6267C36.5461 33.5748 36.6948 33.5054 36.7654 33.4725C36.8359 33.4395 36.8935 33.4018 36.8935 33.3886C36.8935 33.3754 36.9377 33.3557 36.9916 33.345C37.2271 33.2979 37.2555 33.2892 37.2555 33.264C37.2555 33.2493 37.2766 33.2373 37.3025 33.2373C37.3285 33.2373 37.3405 33.2227 37.3293 33.2047C37.3173 33.1853 37.3318 33.1745 37.3653 33.1781C37.5149 33.1939 37.6174 33.1751 37.6174 33.1319C37.6174 33.107 37.6436 33.0867 37.6756 33.0867C37.7075 33.0867 37.7535 33.0669 37.7777 33.0427C37.802 33.0186 37.904 32.9856 38.0044 32.9694C38.1049 32.9533 38.215 32.9251 38.2491 32.9069C38.2832 32.8887 38.3111 32.8827 38.3111 32.8936C38.3111 32.9045 38.33 32.8977 38.3531 32.8786C38.3762 32.8594 38.4645 32.8355 38.5491 32.8255C38.6338 32.8155 38.7031 32.7972 38.7031 32.7848C38.7031 32.7724 38.7404 32.7551 38.7861 32.7463C38.9669 32.7114 39.1451 32.6609 39.2355 32.6189C39.2878 32.5946 39.3794 32.5748 39.4391 32.5748C39.4988 32.5748 39.5476 32.5642 39.5476 32.5512C39.5476 32.5383 39.6121 32.5092 39.6909 32.4867C39.7697 32.4641 39.8477 32.4358 39.8643 32.4239C39.8809 32.4119 39.9691 32.3928 40.0603 32.3814C40.1516 32.3701 40.3517 32.3276 40.5051 32.2871C40.6584 32.2466 40.8304 32.2134 40.8871 32.2134C40.9438 32.2134 40.9948 32.2005 41.0003 32.1846C41.009 32.1598 41.2815 32.0972 41.6214 32.0421C41.6755 32.0333 41.7272 32.0141 41.7363 31.9993C41.7454 31.9846 41.8208 31.9725 41.9039 31.9725C41.9869 31.9725 42.0793 31.9595 42.1091 31.9436C42.1612 31.9157 42.2207 31.9044 42.5485 31.8599L42.6993 31.8394L42.5485 31.8183C42.4656 31.8066 42.3018 31.796 42.1846 31.7945C42.0674 31.793 41.8977 31.7797 41.8076 31.7648C41.7175 31.7498 41.4673 31.7221 41.2517 31.703C41.036 31.684 40.7239 31.6559 40.558 31.6406C40.3921 31.6253 40.1546 31.6048 40.0302 31.595C39.9058 31.5852 39.6411 31.5509 39.4421 31.5186C39.243 31.4864 38.9987 31.4545 38.8992 31.4477C38.7997 31.4409 38.6164 31.4194 38.492 31.3999C38.3676 31.3804 38.2251 31.3595 38.1753 31.3534C38.0162 31.3339 37.3949 31.2175 37.2856 31.1867C37.2276 31.1704 37.0783 31.1378 36.9539 31.1143C36.587 31.0451 36.2308 30.9567 36.1913 30.925C36.1711 30.9087 36.1071 30.8855 36.0491 30.8734C35.991 30.8612 35.863 30.8117 35.7647 30.7634C35.6663 30.715 35.5681 30.6822 35.5464 30.6905C35.5247 30.6988 35.5101 30.6937 35.5141 30.679C35.5219 30.6501 35.302 30.4368 35.2643 30.4368C35.2432 30.4368 35.1984 30.3592 35.1921 30.3117C35.1907 30.3009 35.1535 30.2587 35.1095 30.218C35.0654 30.1772 35.0074 30.1014 34.9805 30.0494C34.9536 29.9975 34.9184 29.955 34.9022 29.955C34.886 29.955 34.8728 29.9346 34.8728 29.9098C34.8728 29.885 34.8626 29.8646 34.8502 29.8645C34.8378 29.8645 34.8018 29.8001 34.7702 29.7215C34.7387 29.6429 34.6964 29.5582 34.6763 29.5334C34.6561 29.5085 34.6308 29.451 34.6199 29.4054C34.6091 29.3599 34.5869 29.3226 34.5706 29.3226C34.5543 29.3226 34.5411 29.3041 34.5411 29.2816C34.5411 29.259 34.5003 29.1509 34.4506 29.0413C34.4008 28.9318 34.3601 28.8174 34.3601 28.7873C34.3601 28.7571 34.3479 28.7195 34.333 28.7038C34.2955 28.6642 34.1188 28.1393 34.1188 28.0676C34.1188 28.0354 34.0989 27.9829 34.0745 27.9507C34.0502 27.9186 34.0298 27.8571 34.0293 27.8142C34.0288 27.7713 34.0068 27.6697 33.9805 27.5884C33.9543 27.5071 33.9144 27.3457 33.892 27.2298C33.8696 27.1138 33.8365 26.958 33.8184 26.8835C33.8003 26.8089 33.7749 26.6734 33.762 26.5823C33.749 26.4912 33.7214 26.3855 33.7005 26.3474C33.6797 26.3093 33.6556 26.1806 33.6471 26.0613C33.6386 25.9421 33.6201 25.8175 33.6061 25.7843C33.5921 25.7512 33.5719 25.6428 33.5613 25.5434C33.532 25.2691 33.4953 24.9926 33.4591 24.7756C33.4159 24.516 33.3139 23.619 33.2745 23.1532C33.2572 22.9483 33.2362 22.7695 33.2278 22.7559C33.2195 22.7424 33.205 22.5443 33.1958 22.3156C33.1865 22.0869 33.1678 21.8883 33.1543 21.8742C33.1407 21.8602 33.137 21.7416 33.146 21.6107C33.155 21.4799 33.1536 21.3728 33.1429 21.3728C33.1322 21.3728 33.1235 21.4305 33.1235 21.501ZM21.3357 22.3966C21.3357 22.438 21.3426 22.455 21.3509 22.4343C21.3593 22.4136 21.3593 22.3797 21.3509 22.359C21.3426 22.3383 21.3357 22.3552 21.3357 22.3966ZM25.608 25.8501C25.6298 25.8588 25.6558 25.8577 25.6658 25.8477C25.6758 25.8377 25.658 25.8306 25.6263 25.8319C25.5911 25.8333 25.584 25.8405 25.608 25.8501ZM21.2475 31.4606C21.2475 31.5186 21.2537 31.5423 21.2613 31.5133C21.2689 31.4843 21.2689 31.4369 21.2613 31.4079C21.2537 31.379 21.2475 31.4026 21.2475 31.4606ZM25.0648 34.7906C25.0526 35.2168 24.979 35.8678 24.837 36.8056C24.8219 36.905 24.8127 37.0609 24.8164 37.1519C24.8206 37.2545 24.8171 37.2774 24.8071 37.2122C24.7916 37.1109 24.7894 37.1139 24.752 37.2875C24.7305 37.3868 24.6978 37.5359 24.6792 37.6187C24.6607 37.7015 24.632 37.837 24.6156 37.9198C24.5799 38.0998 24.5302 38.2886 24.4967 38.3715C24.395 38.6234 24.3091 38.779 24.2184 38.8759C24.1602 38.938 24.128 38.9895 24.1468 38.9904C24.2113 38.9933 23.759 39.1622 23.6231 39.186C23.5026 39.207 23.4958 39.2122 23.5628 39.2318C23.6197 39.2484 23.5999 39.2546 23.482 39.2568C23.3823 39.2588 23.3083 39.2773 23.2775 39.3081C23.2457 39.3398 23.2035 39.3498 23.1536 39.3373C23.1109 39.3266 23.0357 39.3375 22.9811 39.3622C22.9278 39.3864 22.7688 39.4154 22.6278 39.4266C22.4868 39.438 22.355 39.4605 22.3348 39.4768C22.3147 39.4931 22.0636 39.5258 21.7768 39.5496C21.1018 39.6055 20.969 39.622 20.969 39.6501C20.969 39.6628 21.0983 39.6827 21.2564 39.6942C21.4144 39.7058 21.5874 39.733 21.6409 39.7547C21.6944 39.7764 21.8124 39.8035 21.9032 39.815C21.994 39.8265 22.0855 39.8501 22.1064 39.8674C22.1274 39.8848 22.182 39.8902 22.2278 39.8796C22.2807 39.8673 22.2965 39.8701 22.271 39.887C22.2421 39.9063 22.2579 39.9192 22.3276 39.9331C22.3807 39.9437 22.455 39.9524 22.4927 39.9524C22.5303 39.9524 22.5685 39.9718 22.5776 39.9955C22.587 40.0198 22.6572 40.0477 22.7392 40.0595C22.8189 40.0711 22.902 40.0947 22.9238 40.1121C22.9636 40.1438 23.2214 40.2437 23.3396 40.2732C23.3744 40.2818 23.4409 40.3217 23.4875 40.3616C23.5341 40.4015 23.589 40.4343 23.6095 40.4343C23.63 40.4343 23.6541 40.4533 23.6631 40.4766C23.672 40.4999 23.7176 40.5274 23.7643 40.5377C23.947 40.5781 24.3727 41.0492 24.4262 41.2701C24.4372 41.3155 24.4714 41.3886 24.5022 41.4326C24.5329 41.4766 24.5581 41.523 24.5581 41.5357C24.5581 41.5483 24.5764 41.5801 24.5989 41.6063C24.6214 41.6324 24.6555 41.7487 24.6748 41.8646C24.6941 41.9805 24.7374 42.2245 24.7711 42.4066C24.8423 42.7916 24.8902 43.1039 24.8913 43.1896C24.8917 43.2227 24.9075 43.304 24.9264 43.3703C24.9453 43.4365 24.9577 43.5031 24.9538 43.5183C24.9448 43.5536 25.0053 44.2328 25.0439 44.5296C25.06 44.6538 25.0737 44.8503 25.0743 44.9662C25.0752 45.1289 25.081 45.1564 25.0997 45.0867C25.1131 45.037 25.1256 44.8575 25.1276 44.6877C25.1295 44.5179 25.1426 44.379 25.1568 44.379C25.1708 44.379 25.1913 44.2317 25.2023 44.0516C25.2132 43.8715 25.2423 43.658 25.2668 43.5773C25.2914 43.4965 25.3116 43.3824 25.3117 43.3236C25.3119 43.2648 25.3244 43.2038 25.3395 43.1881C25.3545 43.1723 25.3739 43.0917 25.3826 43.0089C25.4146 42.7025 25.468 42.4349 25.51 42.3701C25.5339 42.3334 25.5534 42.2609 25.5534 42.209C25.5534 42.1571 25.5728 42.0719 25.5966 42.0197C25.6204 41.9675 25.6598 41.8503 25.6842 41.7592C25.7353 41.5682 25.8026 41.3734 25.9123 41.0983C26.0017 40.8741 26.2395 40.6053 26.3968 40.5505C26.4521 40.5313 26.5225 40.4905 26.5532 40.4598C26.5839 40.4292 26.6361 40.4041 26.6693 40.4041C26.7025 40.4041 26.7567 40.377 26.7899 40.3439C26.8231 40.3108 26.8808 40.2833 26.9181 40.2827C26.995 40.2816 27.1007 40.2126 27.071 40.1828C27.0602 40.1721 27.1229 40.1632 27.2104 40.1632C27.3357 40.1632 27.3659 40.1541 27.3529 40.1203C27.3401 40.087 27.3801 40.0726 27.5306 40.0565C27.6375 40.0451 27.7249 40.0268 27.7249 40.0157C27.7249 39.9948 27.9053 39.9398 28.0868 39.9053C28.1449 39.8943 28.2084 39.8724 28.228 39.8567C28.2476 39.8409 28.3551 39.8151 28.4669 39.7993C28.5787 39.7835 28.6868 39.7568 28.707 39.74C28.7273 39.7232 28.7894 39.7056 28.8451 39.7009C28.9008 39.6962 29.0142 39.6765 29.0972 39.6572C29.1801 39.6379 29.3158 39.6129 29.3988 39.6015L29.5496 39.5809L29.4138 39.558C29.3392 39.5454 29.1017 39.5197 28.886 39.5008C28.6704 39.4819 28.3456 39.4459 28.1643 39.4208C27.8127 39.3721 27.4172 39.3234 27.2391 39.3068C27.1792 39.3012 27.1046 39.2832 27.0732 39.2667C27.0418 39.2502 26.955 39.2272 26.8804 39.2156C26.702 39.1879 26.5185 39.1347 26.5185 39.1107C26.5185 39.1002 26.437 39.0736 26.3375 39.0515C26.238 39.0295 26.1561 38.9962 26.1556 38.9775C26.1551 38.9589 26.1064 38.8962 26.0474 38.8383C25.944 38.7366 25.9096 38.6736 25.7433 38.2812C25.7012 38.1818 25.6547 38.0802 25.64 38.0553C25.5889 37.969 25.5072 37.6532 25.4455 37.3037C25.4208 37.1635 25.3893 37.0416 25.3755 37.0326C25.3618 37.0237 25.3356 36.9013 25.3175 36.7605C25.2993 36.6197 25.2705 36.4232 25.2535 36.3238C25.2158 36.1035 25.17 35.626 25.131 35.0469C25.1149 34.8084 25.0948 34.6063 25.0863 34.5978C25.0778 34.5893 25.0681 34.676 25.0648 34.7906ZM25.2693 37.0576C25.2563 37.0786 25.2539 37.1039 25.2638 37.1138C25.2908 37.1407 25.3203 37.1011 25.3057 37.0575C25.2955 37.0269 25.2883 37.0269 25.2693 37.0576ZM24.6486 41.5466C24.6486 41.5807 24.6621 41.6087 24.6787 41.6087C24.6953 41.6087 24.7089 41.5891 24.7089 41.5653C24.7089 41.5414 24.6953 41.5135 24.6787 41.5033C24.6621 41.493 24.6486 41.5126 24.6486 41.5466ZM33.1326 43.1444C33.1326 43.2355 33.1382 43.2728 33.1451 43.2272C33.152 43.1817 33.152 43.1072 33.1451 43.0616C33.1382 43.016 33.1326 43.0533 33.1326 43.1444ZM25.0465 43.9725C25.0471 44.0222 25.0539 44.0389 25.0615 44.0096C25.0692 43.9803 25.0687 43.9396 25.0604 43.9192C25.0522 43.8989 25.0459 43.9228 25.0465 43.9725ZM33.1259 44.1557C33.1274 44.1908 33.1345 44.1979 33.1441 44.1739C33.1528 44.1522 33.1518 44.1262 33.1417 44.1162C33.1317 44.1062 33.1246 44.124 33.1259 44.1557Z" fill="#FAE25D"/>
</svg>
