<svg xmlns="http://www.w3.org/2000/svg" width="40" height="37" viewBox="0 0 40 37" fill="none">
<path fill-rule="evenodd" clip-rule="evenodd" d="M6.50256 0.0151377C6.49602 0.0911158 6.48424 0.225804 6.47647 0.314445C6.46866 0.403086 6.44709 0.662103 6.42849 0.890037C6.40994 1.11797 6.36398 1.47189 6.3264 1.67657C6.28878 1.88121 6.25986 2.10914 6.26212 2.18309C6.26622 2.31916 6.23735 2.51666 6.09769 3.30752C5.9584 4.0965 5.92732 4.29349 5.89055 4.62015C5.87053 4.79757 5.82019 4.99442 5.77861 5.0576C5.73703 5.12077 5.68783 5.27605 5.66918 5.40268C5.65058 5.52931 5.59624 5.68195 5.54844 5.74195C5.50065 5.80191 5.47159 5.86688 5.48393 5.88636C5.49622 5.90584 5.47475 5.94737 5.43618 5.97868C5.39762 6.00999 5.36607 6.06668 5.36607 6.10467C5.36607 6.16131 5.37897 6.16324 5.43779 6.11553C5.49773 6.06686 5.50465 6.06972 5.47984 6.13294C5.4635 6.17448 5.42064 6.2085 5.38457 6.2085C5.3485 6.2085 5.31898 6.22761 5.31898 6.25101C5.31898 6.43179 4.62639 6.85151 4.21239 6.92159C4.10879 6.93914 4.00284 6.96967 3.97694 6.98942C3.95105 7.00918 3.84509 7.03892 3.7415 7.05554C3.40321 7.10979 2.9667 7.23375 2.98906 7.26916C3.00112 7.28822 2.93802 7.28772 2.84883 7.26805C2.75965 7.24839 2.67757 7.24121 2.66637 7.25217C2.64729 7.27082 2.40898 7.30595 1.6225 7.40601C1.19488 7.46044 0.346714 7.53854 0.150965 7.54153C-0.0937088 7.54526 -0.0257123 7.62474 0.245143 7.65163C0.381089 7.66512 0.555931 7.68681 0.633627 7.69984C0.711324 7.71287 0.902035 7.73797 1.05743 7.7556C1.27197 7.77992 1.31731 7.79695 1.24578 7.82629C1.18278 7.85216 1.23976 7.86133 1.41799 7.85405C1.56448 7.84807 1.67448 7.8587 1.66243 7.87772C1.65037 7.89674 1.7 7.91253 1.77276 7.9129C1.9864 7.91391 2.13605 7.96415 2.06207 8.01001C2.01889 8.03681 2.03956 8.0492 2.12818 8.04971C2.19915 8.05007 2.36867 8.09184 2.5049 8.14245C2.64117 8.1931 2.79473 8.23454 2.84615 8.23454C2.94042 8.23459 3.04421 8.27884 3.85922 8.66651C4.10526 8.78352 4.32832 8.87925 4.35493 8.87925C4.38153 8.87925 4.47288 8.94141 4.55797 9.01739C4.64302 9.09337 4.72773 9.15553 4.74624 9.15553C4.76469 9.15553 4.87036 9.25394 4.98112 9.37426C5.09182 9.49458 5.21312 9.62582 5.2507 9.66592C5.28823 9.70603 5.31964 9.76819 5.32049 9.80407C5.32223 9.87935 5.436 10.0388 5.4666 10.0089C5.47791 9.99783 5.49161 10.0411 5.49702 10.1051C5.50244 10.1691 5.53874 10.2659 5.57773 10.3203C5.61672 10.3748 5.64954 10.4613 5.65067 10.5127C5.6518 10.564 5.68486 10.6889 5.72418 10.7902C5.92958 11.3199 6.1097 12.2405 6.25798 13.5183C6.28218 13.7271 6.3119 13.9136 6.324 13.9328C6.3361 13.9519 6.36106 14.1333 6.37947 14.3359C6.39783 14.5385 6.43164 14.7391 6.45453 14.7818C6.51118 14.8873 6.50689 14.9233 6.44224 14.8843C6.40372 14.861 6.39816 14.8899 6.42274 14.9852C6.44172 15.0586 6.45575 15.2689 6.45392 15.4525C6.45203 15.643 6.47049 15.7864 6.49696 15.7864C6.52243 15.7864 6.54503 15.6879 6.54711 15.5676C6.55125 15.3306 6.55398 15.3042 6.6321 14.7388C6.66092 14.5298 6.70815 14.188 6.73692 13.979C6.76574 13.77 6.80911 13.4851 6.83331 13.3458C6.85756 13.2065 6.8894 12.9993 6.90409 12.8854C6.91883 12.7714 6.94816 12.6675 6.96926 12.6543C6.9904 12.6413 7.01715 12.5005 7.02869 12.3415C7.04022 12.1825 7.06287 12.0396 7.07902 12.0238C7.09518 12.008 7.10836 11.9364 7.10836 11.8646C7.10836 11.7929 7.12861 11.7342 7.15333 11.7342C7.17805 11.7342 7.21082 11.6565 7.22613 11.5615C7.24148 11.4666 7.28212 11.3267 7.31645 11.2507C7.35077 11.1747 7.40022 11.0089 7.42631 10.8823C7.49119 10.567 7.67475 10.0765 7.72786 10.0765C7.74519 10.0765 7.77368 9.98839 7.79124 9.88078C7.82473 9.67527 8.01666 9.33972 8.10067 9.33972C8.12774 9.33972 8.13678 9.319 8.12077 9.29368C8.10476 9.26835 8.11187 9.24763 8.13659 9.24763C8.16132 9.24763 8.23143 9.19615 8.29241 9.13329C8.35339 9.07039 8.47215 9.00593 8.55635 8.98999C8.64054 8.97411 8.70938 8.94224 8.70938 8.91917C8.70938 8.89615 8.76763 8.85208 8.83888 8.82123C8.91013 8.79042 8.9938 8.74157 9.02493 8.71265C9.05601 8.68378 9.15974 8.64574 9.25538 8.6282C9.35102 8.61066 9.45556 8.57059 9.48772 8.5391C9.51988 8.50765 9.73404 8.42168 9.96365 8.34809C10.1932 8.27446 10.3957 8.19365 10.4136 8.16846C10.4315 8.14332 10.4951 8.11979 10.5549 8.11615C10.7638 8.10345 11.1347 8.03737 11.158 8.00873C11.1954 7.96272 11.6159 7.86621 11.7787 7.86621C11.8603 7.86621 11.9119 7.85129 11.8933 7.8331C11.8552 7.79585 12.2895 7.68695 12.4883 7.68395C12.5595 7.68289 12.6178 7.66397 12.6178 7.64191C12.6178 7.61985 12.7478 7.58744 12.9067 7.56985C13.2372 7.53329 13.2228 7.47029 12.8768 7.43898C11.8363 7.34491 10.6041 7.21611 10.5468 7.19544C10.5085 7.18158 10.2577 7.14018 9.98954 7.10334C9.72133 7.06655 9.46662 7.01857 9.42349 6.99674C9.38035 6.97487 9.23914 6.94241 9.10964 6.92454C8.98015 6.90667 8.82725 6.86256 8.76989 6.82655C8.71254 6.79054 8.61718 6.76093 8.55799 6.76075C8.41955 6.76038 8.21905 6.63007 8.01492 6.4078C7.81809 6.19354 7.39089 5.37993 7.39089 5.21932C7.39089 5.15554 7.37121 5.10337 7.3472 5.10337C7.32313 5.10337 7.27689 4.98424 7.24435 4.8386C7.21186 4.69295 7.15875 4.53238 7.12635 4.48173C7.09395 4.43108 7.0527 4.25495 7.03462 4.09033C7.01658 3.92571 6.98334 3.75598 6.96074 3.71315C6.93813 3.67033 6.89637 3.42167 6.86788 3.16058C6.83939 2.8995 6.79851 2.64444 6.77714 2.59379C6.75571 2.54314 6.72496 2.38773 6.70886 2.24843C6.61925 1.47447 6.58134 1.05765 6.5497 0.498635C6.53034 0.156733 6.50915 -0.0608405 6.50256 0.0151377ZM25.0493 0.878847C25.0493 0.986644 25.0263 1.14721 24.9982 1.23571C24.9701 1.32417 24.9371 1.58305 24.9248 1.81098C24.8835 2.57882 24.8675 2.77655 24.815 3.16938C24.7862 3.38465 24.7414 3.73691 24.7154 3.95219C24.6894 4.16746 24.6476 4.499 24.6225 4.68894C24.5973 4.87889 24.5586 5.17935 24.5365 5.35663C24.4413 6.11646 24.3841 6.52508 24.3367 6.7841C24.3089 6.93605 24.2753 7.19507 24.262 7.35969C24.2488 7.52431 24.2211 7.67972 24.2005 7.70504C24.1799 7.73037 24.1479 7.94794 24.1293 8.18854C24.1108 8.42914 24.0728 8.66743 24.045 8.71808C23.9997 8.8006 23.948 9.05791 23.897 9.45484C23.8873 9.53082 23.8754 9.59298 23.8706 9.59298C23.8658 9.59298 23.8335 9.73803 23.7989 9.91531C23.7193 10.3223 23.6572 10.6017 23.5942 10.8363C23.5669 10.9376 23.5442 11.0916 23.5435 11.1786C23.5429 11.2656 23.5021 11.421 23.4528 11.5239C23.4035 11.6269 23.3529 11.7733 23.3404 11.8493C23.328 11.9253 23.2956 12.0496 23.2685 12.1256C23.2415 12.2016 23.1518 12.4709 23.0692 12.7242C22.9867 12.9775 22.9004 13.2043 22.8776 13.2284C22.8548 13.2525 22.8361 13.3045 22.8361 13.344C22.8361 13.5666 22.1725 14.6056 21.9877 14.6725C21.9394 14.69 21.9004 14.7228 21.9009 14.7456C21.9015 14.7684 21.7996 14.8381 21.6745 14.9006C21.5493 14.9631 21.4152 15.0326 21.3763 15.0551C21.3375 15.0775 21.2527 15.1178 21.188 15.1446C21.1232 15.1714 21.0079 15.2236 20.9318 15.2605C20.8556 15.2974 20.7072 15.3405 20.6021 15.3562C20.497 15.3719 20.3548 15.4124 20.2862 15.4462C20.0556 15.5598 19.2425 15.7862 19.0635 15.7866C19.0018 15.7868 18.897 15.8146 18.8306 15.8485C18.7643 15.8823 18.5639 15.9246 18.3854 15.9425C18.2068 15.9604 18.0376 15.9937 18.0095 16.0165C17.9814 16.0394 17.758 16.0821 17.513 16.1116C17.2681 16.141 17.0061 16.1939 16.9309 16.229C16.8557 16.2641 16.6862 16.2938 16.5542 16.2949C16.4222 16.296 16.2189 16.3185 16.1024 16.345C15.9858 16.3714 15.8234 16.3964 15.7415 16.4005C15.6595 16.4046 15.5765 16.4235 15.557 16.4425C15.5375 16.4615 15.4033 16.4783 15.2587 16.4798C15.017 16.4823 14.7534 16.5178 14.4542 16.5881C14.3895 16.6034 14.167 16.6263 13.9598 16.639C12.8233 16.7088 12.2886 16.7809 12.2874 16.8643C12.2869 16.8989 12.2759 16.8983 12.2521 16.8624C12.227 16.8246 12.0381 16.8211 11.5634 16.8497C10.9386 16.8874 10.653 16.9363 11.0442 16.9386C11.1456 16.9392 11.3134 16.9615 11.417 16.988C11.5206 17.0146 11.849 17.0659 12.1469 17.102C12.4447 17.138 12.7414 17.1867 12.8061 17.21C12.8709 17.2334 13.0696 17.2654 13.2478 17.2811C13.426 17.2968 13.6273 17.3372 13.6951 17.3707C13.763 17.4043 13.9554 17.4464 14.1226 17.4643C14.2898 17.4822 14.4931 17.524 14.5744 17.5572C14.6556 17.5904 14.8578 17.6322 15.0237 17.6502C15.1896 17.6682 15.389 17.7133 15.4667 17.7506C15.5443 17.7878 15.7139 17.8308 15.8434 17.846C15.9729 17.8612 16.1 17.8987 16.1259 17.9293C16.1705 17.9821 16.8441 18.1736 17.0861 18.2023C17.1481 18.2096 17.2177 18.2486 17.2407 18.2889C17.2656 18.3325 17.3773 18.3745 17.5157 18.3924C17.644 18.4091 17.773 18.4512 17.8025 18.486C17.832 18.5207 17.891 18.5492 17.9335 18.5492C17.9761 18.5492 18.0899 18.5906 18.1866 18.6413C18.2832 18.6919 18.3857 18.7334 18.4142 18.7334C18.4428 18.7334 18.6389 18.8074 18.85 18.8978C19.061 18.9883 19.2761 19.0707 19.3279 19.0809C19.3797 19.0912 19.4512 19.1415 19.4867 19.1928C19.5223 19.244 19.5883 19.2859 19.6334 19.2859C19.6786 19.2859 19.7694 19.3274 19.8352 19.378C19.9011 19.4287 19.9801 19.4701 20.0108 19.4701C20.0862 19.4701 20.5758 19.7588 20.5758 19.8032C20.5758 19.8226 20.6034 19.8385 20.6372 19.8385C20.7012 19.8385 21.1057 20.1102 21.133 20.1716C21.1417 20.191 21.1841 20.2074 21.2272 20.2079C21.3062 20.2089 22.0228 20.8743 22.2031 21.1141C22.2564 21.185 22.3579 21.3414 22.4288 21.4617C22.4996 21.582 22.5796 21.6804 22.6065 21.6804C22.6335 21.6804 22.6462 21.7063 22.6347 21.738C22.6232 21.7696 22.6638 21.8933 22.7249 22.0127C22.7861 22.1322 22.8361 22.2706 22.8361 22.3204C22.8361 22.3724 22.8788 22.4243 22.9365 22.4421C23.0153 22.4666 23.0229 22.4819 22.9718 22.5136C22.9248 22.5427 22.9231 22.5541 22.9656 22.5546C22.998 22.555 23.0251 22.602 23.0259 22.6589C23.0267 22.7159 23.057 22.8007 23.0931 22.8473C23.1293 22.894 23.1737 23.0179 23.1918 23.1226C23.2099 23.2274 23.2522 23.355 23.2859 23.4062C23.3195 23.4574 23.3624 23.5822 23.3812 23.6835C23.4 23.7848 23.4432 23.9095 23.4772 23.9607C23.5112 24.0118 23.5533 24.1776 23.5707 24.3291C23.5881 24.4805 23.6228 24.6298 23.6478 24.6609C23.728 24.7604 24.0565 26.1987 24.059 26.4609C24.0597 26.5448 24.0802 26.6497 24.1043 26.6938C24.1498 26.7768 24.2017 27.069 24.3183 27.8968C24.3558 28.1627 24.4311 28.6704 24.4857 29.025C24.5863 29.6787 24.6274 30.0293 24.7149 30.982C24.7417 31.2732 24.7871 31.7187 24.8159 31.972C24.8447 32.2253 24.8769 32.5982 24.8875 32.8008C24.8981 33.0034 24.9181 33.2935 24.9319 33.4455C24.9458 33.5975 24.9676 33.9704 24.9805 34.2744C24.9933 34.5783 25.0187 34.9616 25.037 35.1262C25.0733 35.4531 25.0704 35.4854 25.1651 33.7218C25.1814 33.4179 25.2164 33.0896 25.2428 32.9922C25.2692 32.8948 25.2924 32.6002 25.2945 32.3374C25.2966 32.0746 25.3145 31.8694 25.3344 31.8815C25.3722 31.9043 25.4074 31.6164 25.4542 30.9014C25.4696 30.6671 25.5001 30.4864 25.522 30.4996C25.5439 30.5128 25.561 30.4174 25.56 30.2876C25.5589 30.1578 25.5814 30.0288 25.6098 30.001C25.6381 29.9733 25.6614 29.8213 25.6614 29.6634C25.6614 29.5055 25.6834 29.3197 25.7103 29.2505C25.768 29.1022 25.7881 28.9876 25.8591 28.4033C25.8884 28.1627 25.9297 27.9545 25.951 27.9405C25.9722 27.9266 26.0236 27.678 26.065 27.388C26.1065 27.098 26.1691 26.7981 26.2042 26.7215C26.2392 26.6449 26.266 26.5165 26.2636 26.4362C26.2613 26.3559 26.291 26.2424 26.3297 26.184C26.3685 26.1257 26.4148 25.954 26.4327 25.8026C26.4506 25.6511 26.4963 25.4809 26.5343 25.4243C26.5722 25.3677 26.6032 25.2395 26.6032 25.1394C26.6032 25.0393 26.6256 24.9501 26.653 24.9412C26.6803 24.9323 26.7421 24.752 26.7904 24.5405C26.8385 24.3291 26.9009 24.1337 26.929 24.1063C26.957 24.0789 26.9799 23.9861 26.9799 23.9001C26.9799 23.8141 27.0239 23.6833 27.0777 23.6094C27.1359 23.5295 27.1788 23.3932 27.1835 23.2728C27.1879 23.1615 27.2043 23.0782 27.2199 23.0876C27.2603 23.112 27.3458 22.9286 27.382 22.7395C27.399 22.6509 27.4426 22.5324 27.479 22.4763C27.5153 22.4203 27.545 22.3421 27.545 22.3026C27.545 22.2095 27.8367 21.5239 27.8849 21.5039C27.9051 21.4954 27.9217 21.4283 27.9217 21.3546C27.9217 21.2706 27.9568 21.1993 28.0159 21.1632C28.0677 21.1316 28.11 21.0634 28.11 21.0117C28.11 20.958 28.2302 20.8015 28.3904 20.6465C28.5445 20.4973 28.6598 20.3581 28.6466 20.3371C28.6333 20.3162 28.6614 20.299 28.7089 20.299C28.7565 20.299 28.865 20.2368 28.9501 20.1608C29.0351 20.0849 29.1364 20.0227 29.1752 20.0227C29.214 20.0227 29.2341 20.0042 29.2198 19.9817C29.2056 19.9592 29.2679 19.9064 29.3583 19.8644C29.4487 19.8225 29.5227 19.7694 29.5227 19.7463C29.5227 19.7234 29.5971 19.6909 29.688 19.6742C29.779 19.6576 29.8646 19.6262 29.8782 19.6045C29.8919 19.5829 30.0453 19.5003 30.2191 19.4209C30.3929 19.3416 30.6252 19.2354 30.7352 19.1851C30.8453 19.1347 30.9354 19.077 30.9354 19.0568C30.9354 19.0366 31.0043 19.0066 31.0884 18.9902C31.4562 18.9182 31.5004 18.9049 31.5004 18.8663C31.5004 18.8438 31.5335 18.8255 31.5739 18.8255C31.6145 18.8255 31.6332 18.8032 31.6158 18.7757C31.597 18.746 31.6196 18.7295 31.6719 18.7349C31.9055 18.7591 32.0655 18.7304 32.0655 18.6643C32.0655 18.6263 32.1064 18.5952 32.1563 18.5952C32.2063 18.5952 32.2781 18.565 32.3159 18.528C32.3537 18.491 32.513 18.4406 32.6698 18.4158C32.8268 18.3912 32.9986 18.3481 33.0518 18.3203C33.105 18.2924 33.1486 18.2833 33.1486 18.2999C33.1486 18.3166 33.1781 18.3062 33.2142 18.277C33.2503 18.2477 33.3881 18.2112 33.5203 18.1958C33.6525 18.1805 33.7607 18.1525 33.7607 18.1336C33.7607 18.1146 33.819 18.0882 33.8902 18.0747C34.1725 18.0213 34.4507 17.9441 34.5919 17.8799C34.6735 17.8428 34.8165 17.8124 34.9097 17.8124C35.003 17.8124 35.0792 17.7962 35.0792 17.7764C35.0792 17.7566 35.1799 17.7122 35.3029 17.6777C35.4259 17.6431 35.5477 17.5999 35.5736 17.5816C35.5995 17.5634 35.7373 17.5342 35.8797 17.5168C36.0222 17.4994 36.3346 17.4344 36.5741 17.3725C36.8135 17.3106 37.0819 17.2599 37.1705 17.2599C37.2591 17.2599 37.3387 17.24 37.3473 17.2158C37.3608 17.1778 37.7863 17.0822 38.317 16.9978C38.4014 16.9844 38.4821 16.955 38.4964 16.9325C38.5106 16.9099 38.6283 16.8915 38.758 16.8915C38.8877 16.8915 39.0319 16.8715 39.0784 16.8472C39.1598 16.8046 39.2527 16.7873 39.7646 16.7193L40 16.688L39.7646 16.6556C39.6351 16.6378 39.3794 16.6215 39.1964 16.6193C39.0133 16.617 38.7485 16.5966 38.6078 16.5738C38.467 16.551 38.0764 16.5085 37.7397 16.4793C37.403 16.4502 36.9157 16.4073 36.6567 16.3839C36.3977 16.3605 36.0269 16.3291 35.8326 16.3142C35.6384 16.2992 35.2252 16.2467 34.9144 16.1974C34.6036 16.1481 34.2222 16.0993 34.0668 16.0889C33.9114 16.0785 33.6253 16.0456 33.4311 16.0158C33.2368 15.986 33.0144 15.9541 32.9367 15.9447C32.6883 15.9149 31.7182 15.7368 31.5475 15.6898C31.4569 15.6648 31.2238 15.615 31.0296 15.5791C30.4568 15.4734 29.9007 15.3381 29.8391 15.2896C29.8075 15.2647 29.7075 15.2292 29.6169 15.2107C29.5262 15.1922 29.3264 15.1165 29.1729 15.0425C29.0193 14.9685 28.8659 14.9184 28.8321 14.9311C28.7981 14.9438 28.7754 14.9359 28.7816 14.9135C28.7938 14.8693 28.4505 14.5431 28.3917 14.5431C28.3587 14.5431 28.2887 14.4244 28.2789 14.3518C28.2767 14.3353 28.2186 14.2707 28.1499 14.2085C28.0812 14.1462 27.9906 14.0302 27.9486 13.9508C27.9066 13.8713 27.8515 13.8063 27.8263 13.8063C27.801 13.8063 27.7804 13.7752 27.7804 13.7372C27.7804 13.6993 27.7645 13.6681 27.7451 13.668C27.7257 13.6679 27.6695 13.5695 27.6203 13.4493C27.571 13.3291 27.505 13.1996 27.4735 13.1617C27.4421 13.1237 27.4025 13.0356 27.3856 12.966C27.3687 12.8963 27.334 12.8393 27.3086 12.8393C27.2832 12.8393 27.2624 12.8111 27.2624 12.7766C27.2624 12.7421 27.1989 12.5768 27.1212 12.4092C27.0435 12.2417 26.9799 12.0668 26.9799 12.0207C26.9799 11.9746 26.9609 11.9171 26.9376 11.893C26.8791 11.8325 26.6032 11.0299 26.6032 10.9202C26.6032 10.871 26.5721 10.7906 26.5341 10.7414C26.496 10.6923 26.4642 10.5984 26.4634 10.5328C26.4626 10.4671 26.4283 10.3117 26.3873 10.1874C26.3463 10.0631 26.2841 9.81631 26.2491 9.63903C26.2141 9.46175 26.1623 9.22345 26.1341 9.10949C26.1059 8.99552 26.0662 8.78831 26.046 8.64901C26.0258 8.50972 25.9827 8.34809 25.9501 8.2898C25.9176 8.23155 25.88 8.0347 25.8667 7.85235C25.8534 7.67005 25.8245 7.47941 25.8027 7.42876C25.7808 7.37811 25.7493 7.21234 25.7328 7.06038C25.6871 6.64089 25.6296 6.21804 25.5732 5.88617C25.5058 5.48925 25.3464 4.11759 25.285 3.40533C25.258 3.09193 25.2252 2.81859 25.2121 2.79787C25.199 2.7772 25.1765 2.47416 25.162 2.12447C25.1475 1.77479 25.1184 1.47106 25.0972 1.44956C25.0761 1.4281 25.0703 1.24677 25.0843 1.04664C25.0983 0.846568 25.0962 0.682824 25.0795 0.682824C25.0629 0.682824 25.0493 0.771004 25.0493 0.878847ZM6.64491 2.24843C6.64491 2.31175 6.6556 2.33767 6.66864 2.30599C6.68173 2.27436 6.68173 2.22255 6.66864 2.19087C6.6556 2.15924 6.64491 2.18512 6.64491 2.24843ZM13.3153 7.52928C13.3492 7.54259 13.3899 7.54093 13.4055 7.52564C13.4212 7.51035 13.3934 7.49949 13.3437 7.50147C13.2889 7.50368 13.2777 7.51459 13.3153 7.52928ZM6.50713 16.1087C6.50713 16.1973 6.51683 16.2336 6.52865 16.1893C6.54052 16.145 6.54052 16.0724 6.52865 16.0281C6.51683 15.9838 6.50713 16.02 6.50713 16.1087ZM12.4672 21.2007C12.4481 21.8524 12.3332 22.8479 12.1114 24.2821C12.0879 24.434 12.0735 24.6723 12.0794 24.8116C12.0859 24.9685 12.0804 25.0035 12.0648 24.9037C12.0406 24.7489 12.0371 24.7535 11.9787 25.0188C11.9452 25.1708 11.8942 25.3987 11.8651 25.5254C11.8361 25.652 11.7914 25.8592 11.7658 25.9858C11.71 26.261 11.6324 26.5498 11.5802 26.6765C11.4214 27.0617 11.2873 27.2997 11.1456 27.4478C11.0548 27.5428 11.0045 27.6216 11.0339 27.6229C11.1345 27.6274 10.4285 27.8856 10.2162 27.9219C10.0281 27.9542 10.0175 27.962 10.1221 27.992C10.2109 28.0175 10.18 28.0269 9.9959 28.0303C9.84032 28.0333 9.72476 28.0616 9.67669 28.1087C9.62701 28.1572 9.56104 28.1725 9.48315 28.1534C9.41647 28.137 9.29917 28.1536 9.2138 28.1915C9.13059 28.2284 8.88244 28.2727 8.6623 28.29C8.44215 28.3073 8.23628 28.3418 8.20478 28.3667C8.17332 28.3916 7.78131 28.4417 7.33363 28.478C6.27974 28.5635 6.0724 28.5888 6.0724 28.6317C6.0724 28.6511 6.27427 28.6815 6.52102 28.6992C6.76776 28.7169 7.03791 28.7585 7.1214 28.7916C7.20489 28.8248 7.3892 28.8663 7.53098 28.8838C7.67277 28.9014 7.81554 28.9375 7.84822 28.964C7.8809 28.9905 7.96618 28.9989 8.03776 28.9826C8.12035 28.9639 8.14498 28.968 8.10519 28.994C8.06008 29.0235 8.08475 29.0432 8.19348 29.0645C8.2765 29.0807 8.39252 29.094 8.45124 29.094C8.50996 29.094 8.56967 29.1236 8.58389 29.1599C8.59849 29.1971 8.70821 29.2397 8.83615 29.2578C8.96065 29.2754 9.09038 29.3116 9.12443 29.3381C9.18654 29.3867 9.58901 29.5394 9.7735 29.5845C9.82784 29.5977 9.93177 29.6586 10.0045 29.7197C10.0772 29.7808 10.1629 29.8308 10.195 29.8308C10.227 29.8308 10.2647 29.8599 10.2786 29.8955C10.2926 29.9311 10.3638 29.9732 10.4367 29.989C10.722 30.0508 11.3866 30.7711 11.4702 31.109C11.4873 31.1784 11.5407 31.2902 11.5887 31.3574C11.6367 31.4247 11.676 31.4956 11.676 31.515C11.676 31.5344 11.7047 31.583 11.7397 31.623C11.7748 31.663 11.8281 31.8408 11.8582 32.018C11.8883 32.1953 11.956 32.5683 12.0086 32.8469C12.1197 33.4356 12.1945 33.9131 12.1962 34.0441C12.1968 34.0948 12.2216 34.2191 12.2511 34.3204C12.2806 34.4217 12.2999 34.5236 12.2938 34.5469C12.2799 34.6007 12.3743 35.6393 12.4345 36.0932C12.4596 36.2832 12.481 36.5836 12.482 36.7609C12.4833 37.0096 12.4924 37.0517 12.5216 36.9451C12.5425 36.8691 12.5621 36.5946 12.5651 36.335C12.5682 36.0754 12.5887 35.863 12.6107 35.863C12.6327 35.863 12.6647 35.6376 12.6818 35.3622C12.6989 35.0868 12.7443 34.7605 12.7825 34.637C12.8209 34.5135 12.8524 34.3389 12.8527 34.249C12.853 34.1591 12.8725 34.0659 12.896 34.0418C12.9195 34.0177 12.9497 33.8945 12.9633 33.7678C13.0132 33.2993 13.0966 32.8901 13.1623 32.7909C13.1995 32.7349 13.2299 32.624 13.2299 32.5446C13.2299 32.4653 13.2603 32.335 13.2975 32.2552C13.3346 32.1754 13.3961 31.9962 13.4342 31.8569C13.5141 31.5648 13.619 31.2669 13.7903 30.8462C13.93 30.5034 14.3012 30.0924 14.5469 30.0086C14.6332 29.9792 14.743 29.9168 14.7909 29.8699C14.8389 29.8231 14.9204 29.7847 14.9722 29.7847C15.024 29.7847 15.1088 29.7433 15.1606 29.6926C15.2124 29.642 15.3025 29.5999 15.3607 29.5991C15.4808 29.5974 15.6458 29.4918 15.5993 29.4463C15.5825 29.4299 15.6804 29.4164 15.817 29.4164C16.0127 29.4164 16.0599 29.4025 16.0395 29.3507C16.0196 29.2997 16.082 29.2778 16.317 29.2532C16.4839 29.2357 16.6203 29.2077 16.6203 29.1908C16.6203 29.1589 16.9021 29.0747 17.1854 29.022C17.276 29.0051 17.3753 28.9716 17.4059 28.9476C17.4365 28.9235 17.6043 28.884 17.7789 28.8598C17.9535 28.8357 18.1222 28.7949 18.1538 28.7692C18.1854 28.7435 18.2824 28.7166 18.3694 28.7094C18.4563 28.7021 18.6334 28.6721 18.7629 28.6426C18.8924 28.6131 19.1043 28.5748 19.2338 28.5574L19.4692 28.5259L19.2573 28.4909C19.1408 28.4717 18.7699 28.4322 18.4333 28.4034C18.0966 28.3744 17.5895 28.3194 17.3065 28.281C16.7575 28.2066 16.1399 28.1321 15.8618 28.1067C15.7684 28.0982 15.6519 28.0706 15.6028 28.0454C15.5539 28.0202 15.4184 27.9851 15.3018 27.9673C15.0233 27.925 14.7368 27.8436 14.7368 27.8069C14.7368 27.7908 14.6096 27.7501 14.4542 27.7163C14.2988 27.6826 14.171 27.6318 14.1702 27.6032C14.1694 27.5747 14.0933 27.4789 14.0013 27.3903C13.8398 27.2349 13.7861 27.1384 13.5264 26.5384C13.4607 26.3864 13.3881 26.231 13.3652 26.193C13.2855 26.061 13.1579 25.5781 13.0616 25.0436C13.0229 24.8293 12.9738 24.6428 12.9522 24.6292C12.9308 24.6156 12.89 24.4283 12.8616 24.213C12.8332 23.9977 12.7883 23.6973 12.7618 23.5453C12.7029 23.2084 12.6314 22.4783 12.5704 21.5927C12.5453 21.2279 12.5139 20.9189 12.5007 20.9059C12.4874 20.8929 12.4723 21.0256 12.4672 21.2007ZM12.7865 24.6673C12.7662 24.6994 12.7623 24.7381 12.7779 24.7533C12.82 24.7945 12.866 24.7339 12.8432 24.6671C12.8273 24.6203 12.8162 24.6203 12.7865 24.6673ZM11.8173 31.5318C11.8173 31.5839 11.8384 31.6266 11.8643 31.6266C11.8902 31.6266 11.9114 31.5968 11.9114 31.5603C11.9114 31.5238 11.8902 31.4811 11.8643 31.4655C11.8384 31.4498 11.8173 31.4797 11.8173 31.5318ZM25.0634 33.975C25.0634 34.1143 25.0722 34.1713 25.083 34.1017C25.0938 34.032 25.0938 33.9181 25.083 33.8484C25.0722 33.7787 25.0634 33.8358 25.0634 33.975ZM12.4386 35.2414C12.4395 35.3173 12.4501 35.3428 12.462 35.298C12.474 35.2532 12.4732 35.1911 12.4603 35.1599C12.4474 35.1287 12.4377 35.1654 12.4386 35.2414ZM25.053 35.5215C25.0552 35.5751 25.0664 35.586 25.0814 35.5493C25.095 35.5161 25.0933 35.4763 25.0777 35.461C25.0621 35.4458 25.0509 35.4729 25.053 35.5215Z" fill="#FAE25D"/>
</svg>