<svg xmlns="http://www.w3.org/2000/svg" width="9" height="9" viewBox="0 0 9 9" fill="none">
<path fill-rule="evenodd" clip-rule="evenodd" d="M4.09906 0.00666297C3.4414 0.0849304 2.92419 0.238526 2.41409 0.50705C1.09187 1.20313 0.203176 2.49966 0.0295355 3.98584C-0.0845489 4.9624 0.134321 5.97405 0.643535 6.82378C1.335 7.97765 2.49376 8.75091 3.85384 8.96609C4.13965 9.0113 4.86709 9.0113 5.15289 8.96609C6.37374 8.77295 7.42418 8.13852 8.13539 7.16479C8.56727 6.5735 8.84621 5.89689 8.96133 5.16128C9.00399 4.88867 9.01329 4.29599 8.97949 4.00487C8.8236 2.66254 8.11471 1.49725 6.99952 0.750071C6.45732 0.386824 5.83559 0.144946 5.17135 0.0388534C4.99465 0.0106229 4.25287 -0.0116411 4.09906 0.00666297ZM4.31637 1.23636C4.06795 1.29045 3.83057 1.46909 3.72687 1.67997C3.64647 1.84351 3.64432 1.96967 3.71156 2.58287C3.78 3.20695 3.86049 3.95073 3.90584 4.37807C4.05448 5.77867 4.05049 5.75848 4.20513 5.89768C4.38216 6.05705 4.62457 6.05705 4.80161 5.89768C4.94752 5.76631 4.96171 5.70536 5.05681 4.80048C5.0624 4.74723 5.10258 4.37103 5.14611 3.96447C5.18963 3.55791 5.23706 3.11439 5.25151 2.97887C5.26596 2.84335 5.2911 2.61763 5.30737 2.47727C5.32365 2.33691 5.33728 2.12687 5.33766 2.0105C5.33833 1.80657 5.33627 1.79472 5.28101 1.68233C5.1733 1.46328 4.94193 1.29069 4.68202 1.23553C4.53984 1.20537 4.45788 1.20554 4.31637 1.23636ZM4.34358 6.90141C4.2347 6.94038 4.15538 7.01528 4.09678 7.13447C4.04765 7.23438 4.0425 7.25913 4.05037 7.35739C4.06628 7.55576 4.18696 7.71219 4.36489 7.7651C4.48036 7.79942 4.52638 7.79942 4.64185 7.7651C4.81978 7.71219 4.94046 7.55576 4.95637 7.35739C4.96424 7.25913 4.95909 7.23438 4.90996 7.13447C4.82455 6.96074 4.69425 6.87883 4.50337 6.87883C4.45019 6.87883 4.37828 6.88898 4.34358 6.90141Z" fill="#FF4A4A"/>
</svg>
