<svg xmlns="http://www.w3.org/2000/svg" width="144" height="41" viewBox="0 0 144 41" fill="none">
<path d="M2.93 6.34645C4.54819 6.34645 5.86 5.03464 5.86 3.41645C5.86 1.79826 4.54819 0.48645 2.93 0.48645C1.31181 0.48645 0 1.79826 0 3.41645C0 5.03464 1.31181 6.34645 2.93 6.34645Z" fill="url(#paint0_linear_48_15567)"/>
<path d="M24.61 6.16643C23.6034 5.12749 22.3947 4.30577 21.0584 3.75197C19.722 3.19816 18.2864 2.92402 16.84 2.94643C15.3978 2.92218 13.9661 3.19562 12.6344 3.74965C11.3026 4.30368 10.0994 5.12641 9.09999 6.16643C8.05512 7.17108 7.22891 8.38064 6.67312 9.71936C6.11732 11.0581 5.84391 12.4971 5.86999 13.9464V25.3464C6.4268 25.3464 6.97815 25.2368 7.49257 25.0237C8.00699 24.8106 8.4744 24.4983 8.86812 24.1046C9.26184 23.7108 9.57416 23.2434 9.78724 22.729C10.0003 22.2146 10.11 21.6632 10.11 21.1064V13.9764C10.0969 12.3633 10.6689 10.8001 11.72 9.57643C12.3443 8.8272 13.1278 8.22661 14.0135 7.81836C14.8992 7.41011 15.8648 7.20448 16.84 7.21643C17.7246 7.21511 18.6008 7.38822 19.4185 7.72585C20.2362 8.06347 20.9793 8.55899 21.6053 9.18406C22.2313 9.80913 22.7279 10.5515 23.0667 11.3687C23.4056 12.1858 23.58 13.0618 23.58 13.9464V25.3464C24.1368 25.3464 24.6881 25.2368 25.2026 25.0237C25.717 24.8106 26.1844 24.4983 26.5781 24.1046C26.9718 23.7108 27.2842 23.2434 27.4972 22.729C27.7103 22.2146 27.82 21.6632 27.82 21.1064V13.9464C27.8427 12.4994 27.5697 11.063 27.0177 9.72521C26.4658 8.38742 25.6465 7.17642 24.61 6.16643Z" fill="black"/>
<path d="M72.07 3.4165V14.4165C72.0799 15.303 71.9074 16.1821 71.5634 16.9992C71.2193 17.8164 70.711 18.554 70.07 19.1665C69.4579 19.808 68.7203 20.3166 67.9031 20.6607C67.0859 21.0048 66.2066 21.177 65.32 21.1665C64.423 21.1666 63.5348 20.9901 62.7061 20.6469C61.8773 20.3037 61.1243 19.8007 60.49 19.1665C59.8656 18.5408 59.3758 17.794 59.0508 16.9719C58.7257 16.1499 58.5723 15.27 58.6 14.3865V7.6565C58.6 6.53199 58.1533 5.45353 57.3581 4.65837C56.563 3.86322 55.4845 3.4165 54.36 3.4165V14.4165C54.3377 15.8602 54.614 17.293 55.1716 18.6249C55.7291 19.9568 56.5559 21.1592 57.6 22.1565C58.5994 23.1965 59.8026 24.0192 61.1344 24.5733C62.4661 25.1273 63.8978 25.4008 65.34 25.3765C67.7818 25.4008 70.1578 24.5853 72.07 23.0665V29.0665C72.0832 29.9907 71.9133 30.9083 71.57 31.7665C71.2268 32.6247 70.717 33.4064 70.07 34.0665C69.4695 34.7215 68.7394 35.2446 67.926 35.6024C67.1125 35.9602 66.2336 36.1449 65.345 36.1449C64.4564 36.1449 63.5774 35.9602 62.764 35.6024C61.9506 35.2446 61.2205 34.7215 60.62 34.0665C59.9298 33.3981 59.3792 32.5993 59 31.7165C58.6926 30.903 58.1457 30.2018 57.4316 29.7055C56.7175 29.2092 55.8696 28.941 55 28.9365C54.775 28.9288 54.55 28.949 54.33 28.9965C54.3085 30.4859 54.5919 31.964 55.1629 33.3397C55.7339 34.7155 56.5802 35.96 57.65 36.9965C58.6365 38.0453 59.8272 38.8812 61.1488 39.4525C62.4705 40.0238 63.8951 40.3186 65.335 40.3186C66.7749 40.3186 68.1995 40.0238 69.5211 39.4525C70.8428 38.8812 72.0335 38.0453 73.02 36.9965C74.0542 36.005 74.8818 34.8186 75.4551 33.5056C76.0284 32.1925 76.3359 30.779 76.36 29.3465V7.6565C76.36 6.53199 75.9133 5.45353 75.1181 4.65837C74.323 3.86322 73.2445 3.4165 72.12 3.4165H72.07Z" fill="black"/>
<path d="M94.1 5.65644C93.2898 4.80767 92.3127 4.13581 91.2302 3.68318C90.1477 3.23055 88.9832 3.00694 87.81 3.02644C86.6364 3.01847 85.4729 3.24375 84.387 3.68919C83.3012 4.13464 82.3147 4.79138 81.4848 5.62127C80.6549 6.45116 79.9982 7.43767 79.5527 8.52349C79.1073 9.60932 78.882 10.7728 78.89 11.9464V25.3464C79.4468 25.3464 79.9981 25.2368 80.5126 25.0237C81.027 24.8106 81.4944 24.4983 81.8881 24.1046C82.2818 23.7109 82.5941 23.2434 82.8072 22.729C83.0203 22.2146 83.13 21.6632 83.13 21.1064V12.1064C83.1203 11.4538 83.2419 10.8059 83.4875 10.2012C83.7332 9.59655 84.0979 9.04741 84.56 8.58644C84.985 8.15911 85.492 7.82194 86.0504 7.59513C86.6089 7.36831 87.2073 7.25652 87.81 7.26644C88.4258 7.25836 89.0368 7.37565 89.6058 7.61117C90.1748 7.84669 90.69 8.19552 91.12 8.63644C91.2742 8.79346 91.4178 8.96049 91.55 9.13644H96.29C95.8514 7.81677 95.1 6.62281 94.1 5.65644Z" fill="black"/>
<path d="M52.52 11.6265C52.0391 9.62118 50.9988 7.79365 49.52 6.35646C48.3369 5.14969 46.8934 4.22956 45.3 3.66646L44.77 3.48646C43.6878 3.17431 42.5663 3.01939 41.44 3.02646C39.9342 3.00023 38.4389 3.2821 37.046 3.85474C35.6531 4.42738 34.392 5.27871 33.34 6.35646C32.263 7.40111 31.4111 8.65506 30.8367 10.0412C30.2624 11.4273 29.9776 12.9162 30 14.4165C30 14.5765 30 14.7465 30 14.9165C30 15.0865 30 15.2465 30 15.4165C30.1661 17.8956 31.1835 20.2412 32.88 22.0565L33.29 22.4865C35.4402 24.6195 38.3463 25.8164 41.375 25.8164C44.4038 25.8164 47.3098 24.6195 49.46 22.4865C49.6 22.3465 49.74 22.1965 49.86 22.0565C50.6199 21.2389 51.2475 20.3077 51.72 19.2965H48.1C47.2393 19.3094 46.4067 19.6045 45.73 20.1365C44.8154 20.8721 43.7145 21.3395 42.55 21.4865C42.4147 21.5129 42.2777 21.5297 42.14 21.5365C41.9136 21.5517 41.6864 21.5517 41.46 21.5365H41.41C41.1769 21.5517 40.9431 21.5517 40.71 21.5365L40.28 21.4865C39.9424 21.4433 39.6082 21.3764 39.28 21.2865C39.06 21.2165 38.84 21.1465 38.63 21.0565C38.0753 20.8294 37.5565 20.5229 37.09 20.1465C36.9224 20.034 36.7651 19.9068 36.62 19.7665L36.31 19.4665C36.09 19.2465 35.89 19.0165 35.71 18.7965C35.4736 18.4805 35.263 18.1461 35.08 17.7965C35.02 17.6865 34.95 17.5565 34.89 17.4265C34.8432 17.3445 34.8062 17.2572 34.78 17.1665C34.7273 17.0523 34.6806 16.9355 34.64 16.8165C34.5848 16.677 34.5413 16.5332 34.51 16.3865C34.4074 16.0602 34.3338 15.7256 34.29 15.3865H52.8C52.8 15.2365 52.8 15.0865 52.8 14.9365V14.4365C52.8176 13.492 52.7236 12.5488 52.52 11.6265ZM34.83 11.6265C35.1335 10.8862 35.5708 10.2082 36.12 9.62646L36.35 9.37646L36.66 9.08646C36.7999 8.94033 36.9578 8.81263 37.13 8.70646C37.4117 8.47258 37.7166 8.26818 38.04 8.09646C38.1261 8.04816 38.2165 8.00799 38.31 7.97646C38.4194 7.90593 38.5369 7.84886 38.66 7.80646C38.8709 7.71173 39.0881 7.63154 39.31 7.56646C39.637 7.4712 39.9715 7.40428 40.31 7.36646C40.4518 7.33668 40.5955 7.31664 40.74 7.30646C40.97 7.30646 41.2 7.30646 41.44 7.30646H41.49C41.72 7.30646 41.95 7.30646 42.17 7.30646C42.3079 7.31665 42.4449 7.33671 42.58 7.36646C43.7362 7.51508 44.8294 7.97863 45.74 8.70646C45.9104 8.81513 46.0681 8.9426 46.21 9.08646C46.32 9.17646 46.42 9.27646 46.52 9.37646L46.75 9.62646C47.3026 10.2056 47.7403 10.8842 48.04 11.6265H34.83Z" fill="black"/>
<path d="M140.05 6.16646C137.989 4.11466 135.198 2.96277 132.29 2.96277C129.382 2.96277 126.591 4.11466 124.53 6.16646C123.488 7.17307 122.665 8.38322 122.111 9.72165C121.557 11.0601 121.284 12.4982 121.31 13.9465V25.3465C121.867 25.3465 122.418 25.2368 122.933 25.0237C123.447 24.8106 123.914 24.4983 124.308 24.1046C124.702 23.7109 125.014 23.2435 125.227 22.729C125.44 22.2146 125.55 21.6633 125.55 21.1065V13.9465C125.538 13.0581 125.709 12.1767 126.053 11.3576C126.397 10.5385 126.907 9.79935 127.55 9.18646C128.166 8.55014 128.904 8.04495 129.721 7.70125C130.537 7.35755 131.414 7.18245 132.3 7.18646C134.092 7.19443 135.808 7.91382 137.07 9.18646C137.711 9.79893 138.219 10.5366 138.563 11.3537C138.907 12.1708 139.08 13.0499 139.07 13.9365V25.3365C140.195 25.3365 141.273 24.8897 142.068 24.0946C142.863 23.2994 143.31 22.221 143.31 21.0965V13.9465C143.327 12.4958 143.046 11.057 142.486 9.71891C141.925 8.38083 141.096 7.17182 140.05 6.16646Z" fill="black"/>
<path d="M116.07 6.41649C113.921 4.28405 111.017 3.0874 107.99 3.0874C104.963 3.0874 102.058 4.28405 99.91 6.41649C98.3109 7.97239 97.2228 9.97776 96.79 12.1665C96.6397 12.9306 96.566 13.7078 96.57 14.4865C96.57 14.7265 96.57 14.9665 96.57 15.2065C96.7488 18.1113 98.0328 20.8374 100.158 22.8254C102.284 24.8133 105.09 25.9122 108 25.8965C109.504 25.9196 110.997 25.6362 112.388 25.0638C113.778 24.4913 115.038 23.6416 116.09 22.5665C117.168 21.5187 118.019 20.2611 118.592 18.8714C119.165 17.4817 119.446 15.9893 119.42 14.4865C119.442 12.9839 119.157 11.4926 118.581 10.1046C118.004 8.71663 117.15 7.46145 116.07 6.41649ZM113.07 19.5565C112.066 20.5612 110.787 21.2458 109.395 21.5237C108.002 21.8015 106.558 21.6602 105.246 21.1175C103.934 20.5748 102.812 19.6551 102.022 18.4748C101.233 17.2945 100.811 15.9066 100.81 14.4865C100.799 13.5538 100.98 12.6288 101.342 11.7688C101.703 10.9088 102.237 10.132 102.91 9.48649C103.576 8.81768 104.368 8.28699 105.24 7.92489C106.111 7.56278 107.046 7.37638 107.99 7.37638C108.934 7.37638 109.869 7.56278 110.74 7.92489C111.612 8.28699 112.404 8.81768 113.07 9.48649C113.737 10.1355 114.266 10.9134 114.623 11.7729C114.981 12.6324 115.16 13.5556 115.15 14.4865C115.167 15.4287 114.991 16.3643 114.633 17.2362C114.276 18.108 113.744 18.8975 113.07 19.5565Z" fill="black"/>
<defs>
<linearGradient id="paint0_linear_48_15567" x1="-32.88" y1="-27.8836" x2="67.2" y2="59.6065" gradientUnits="userSpaceOnUse">
<stop stop-color="#FFCDFF"/>
<stop offset="0.52" stop-color="#A967FF"/>
<stop offset="1" stop-color="#7F00C5"/>
</linearGradient>
</defs>
</svg>