<svg width="147" height="360" viewBox="0 0 147 360" fill="none" xmlns="http://www.w3.org/2000/svg">
<rect y="200.132" width="215.662" height="325.242" rx="107.831" transform="rotate(-60.5728 0 200.132)" fill="#5EB1AB"/>
<g clip-path="url(#clip0_526_8291)">
<rect x="62.4941" y="168.257" width="32.7134" height="32.7134" rx="16.3567" transform="rotate(-60.5728 62.4941 168.257)" fill="#F9FFFF"/>
<rect x="68.5007" y="168.42" width="10.6319" height="10.6319" rx="5.31593" transform="rotate(-60.5728 68.5007 168.42)" fill="#262626"/>
</g>
<rect x="92.8286" y="114.477" width="32.7134" height="32.7134" rx="16.3567" transform="rotate(-60.5728 92.8286 114.477)" fill="#F9FFFF"/>
<rect x="98.8352" y="114.641" width="10.6319" height="10.6319" rx="5.31593" transform="rotate(-60.5728 98.8352 114.641)" fill="#262626"/>
<path fill-rule="evenodd" clip-rule="evenodd" d="M153.767 313.029C153.295 314.284 153.17 315.705 153.53 316.997C153.776 317.877 153.89 318.81 153.85 319.772C153.808 320.816 153.589 321.812 153.222 322.731C152.664 324.131 152.682 325.768 153.133 327.206C153.371 327.967 153.484 328.781 153.45 329.623C153.29 333.552 149.976 336.608 146.047 336.448C142.118 336.289 139.062 332.974 139.221 329.045C139.278 327.65 138.86 326.192 137.971 325.116C136.614 323.472 135.834 321.342 135.928 319.044C136.029 316.559 137.131 314.352 138.831 312.795C139.543 312.142 139.947 311.198 139.986 310.233C140.146 306.304 143.46 303.248 147.389 303.407C151.318 303.567 154.374 306.881 154.215 310.81C154.183 311.59 154.027 312.336 153.767 313.029Z" fill="#5EB1AB"/>
<path fill-rule="evenodd" clip-rule="evenodd" d="M153.767 10.0599C153.295 11.3154 153.17 12.7366 153.53 14.0285C153.776 14.9085 153.889 15.8413 153.85 16.8034C153.808 17.8479 153.589 18.8435 153.222 19.7623C152.664 21.1621 152.682 22.7996 153.133 24.2378C153.371 24.9982 153.484 25.8119 153.45 26.6538C153.29 30.5829 149.976 33.6388 146.047 33.4793C142.118 33.3198 139.062 30.0053 139.221 26.0762C139.278 24.6812 138.86 23.2239 137.971 22.1473C136.614 20.5036 135.834 18.3731 135.928 16.0758C136.029 13.591 137.131 11.3835 138.831 9.82653C139.543 9.17395 139.947 8.22935 139.986 7.26414C140.146 3.33502 143.46 0.279142 147.389 0.438643C151.318 0.598143 154.374 3.91262 154.215 7.84174C154.183 8.62165 154.027 9.36716 153.767 10.0599Z" fill="#5EB1AB"/>
<defs>
<clipPath id="clip0_526_8291">
<rect x="62.4941" y="168.257" width="32.7134" height="32.7134" rx="16.3567" transform="rotate(-60.5728 62.4941 168.257)" fill="white"/>
</clipPath>
</defs>
</svg>
